<svg id="svg" xmlns="http://www.w3.org/2000/svg" xmlns:xlink="http://www.w3.org/1999/xlink" width="400" height="454.38335809806836" viewBox="0, 0, 400,454.38335809806836"><g id="svgg"><path id="path0" d="M87.747 12.378 C 77.099 14.080,72.826 20.047,72.811 33.234 C 72.809 34.433,72.708 35.365,72.585 35.305 C 72.463 35.245,72.000 35.015,71.557 34.792 C 69.797 33.908,68.351 36.694,68.351 40.970 C 68.351 43.986,72.924 51.183,74.481 50.616 C 74.698 50.538,74.890 51.210,75.023 52.513 C 75.136 53.624,75.371 55.026,75.546 55.629 C 75.933 56.964,75.470 61.090,74.725 62.951 C 74.036 64.675,71.982 65.963,62.180 70.822 C 54.024 74.866,50.435 77.013,47.697 79.486 C 46.880 80.224,45.743 80.981,45.171 81.167 C 43.370 81.755,41.789 82.644,40.713 83.673 C 40.141 84.221,38.576 85.205,37.234 85.860 C 32.764 88.043,31.823 89.356,29.735 96.318 C 26.608 106.750,26.178 111.790,27.860 118.294 L 28.825 122.027 27.822 125.005 C 25.926 130.635,25.051 135.862,24.496 144.874 C 24.297 148.111,24.281 148.166,22.855 150.546 C 19.313 156.458,18.412 159.515,18.221 166.270 C 18.091 170.885,18.006 171.515,17.244 173.551 C 15.345 178.626,15.187 184.213,16.602 196.285 C 17.755 206.120,17.825 207.452,17.959 222.140 C 18.067 233.868,18.523 243.010,19.457 252.200 C 19.856 256.124,20.017 256.773,21.858 261.859 C 22.943 264.857,23.974 267.745,24.149 268.276 C 24.664 269.835,26.635 268.854,27.351 266.683 L 27.699 265.630 28.370 266.261 L 29.041 266.891 29.825 265.235 C 30.256 264.325,30.609 263.467,30.609 263.328 C 30.609 263.190,30.886 262.451,31.225 261.685 C 32.380 259.073,32.129 257.579,29.904 253.830 C 25.710 246.764,25.749 246.917,27.149 242.999 C 29.787 235.617,31.235 235.078,32.074 241.162 C 32.921 247.302,37.339 250.717,38.320 245.989 C 39.852 238.601,38.549 229.787,35.212 224.969 C 30.644 218.374,31.019 212.919,37.154 196.731 C 42.438 182.789,43.656 176.035,41.921 170.293 C 41.653 169.405,41.704 169.119,42.296 168.213 C 43.724 166.024,44.013 164.746,44.271 159.452 C 44.597 152.779,45.977 147.399,48.425 143.259 C 49.666 141.160,51.848 136.832,53.061 134.063 L 54.021 131.869 54.228 133.171 C 54.838 137.006,55.503 139.305,57.587 144.785 L 59.881 150.817 59.965 162.810 L 60.049 174.803 58.719 177.075 C 55.097 183.257,54.750 185.424,56.344 191.872 C 56.779 193.635,56.768 193.800,56.041 196.479 C 54.204 203.246,53.195 209.985,53.195 215.483 C 53.195 219.404,52.937 220.834,50.257 231.798 C 44.391 255.799,44.045 268.906,48.364 303.566 C 49.859 315.562,49.867 322.142,48.391 325.706 C 45.988 331.506,43.993 338.364,43.377 342.942 C 42.876 346.670,43.235 350.473,45.768 368.218 C 49.304 392.992,49.401 397.129,46.562 402.080 C 45.781 403.442,45.594 404.146,45.438 406.301 L 45.251 408.888 42.588 412.988 C 38.566 419.181,36.985 421.917,34.933 426.235 C 33.904 428.400,32.644 430.831,32.133 431.637 C 30.919 433.552,30.873 435.061,32.001 435.948 C 32.440 436.294,33.038 436.968,33.329 437.448 C 33.621 437.928,34.165 438.400,34.538 438.499 C 34.910 438.597,35.483 439.097,35.810 439.610 C 36.215 440.246,36.759 440.627,37.519 440.806 C 38.132 440.951,38.633 441.236,38.633 441.440 C 38.633 442.735,41.189 443.419,42.833 442.563 L 43.913 442.001 44.695 442.982 C 47.078 445.968,51.767 444.587,54.601 440.064 C 55.081 439.299,55.973 438.173,56.583 437.563 C 59.083 435.062,60.327 432.290,60.327 429.217 C 60.327 427.704,60.412 427.534,62.256 425.333 C 66.416 420.370,66.906 418.124,64.933 413.047 C 63.421 409.154,63.428 409.249,64.487 406.837 L 65.432 404.683 64.511 401.078 C 63.230 396.059,63.310 394.279,65.243 384.777 C 67.320 374.571,68.927 369.283,71.767 363.299 C 77.928 350.317,78.456 345.251,75.387 328.597 L 74.688 324.802 76.207 321.762 C 80.294 313.583,80.338 313.357,82.472 289.004 C 83.666 275.374,84.374 270.878,87.361 257.949 C 90.031 246.395,90.099 245.994,90.115 241.753 C 90.123 239.629,90.032 237.322,89.912 236.627 C 89.722 235.521,89.763 235.364,90.241 235.364 C 90.753 235.364,90.788 235.735,90.788 241.233 L 90.789 247.103 92.816 255.721 C 96.787 272.605,97.274 275.979,99.254 300.297 C 100.171 311.568,101.127 315.302,104.990 322.707 C 106.064 324.765,106.118 324.990,105.824 326.160 C 105.112 328.986,104.003 336.748,103.709 340.965 C 103.143 349.059,103.823 351.938,108.974 363.288 C 114.582 375.642,118.194 393.706,116.384 400.337 C 115.372 404.042,115.391 405.130,116.510 407.520 L 117.418 409.461 116.535 411.210 C 113.624 416.976,114.078 420.122,118.599 425.510 C 120.236 427.462,120.261 427.521,120.458 429.866 C 120.704 432.790,121.587 434.726,123.750 437.087 C 124.604 438.019,125.819 439.567,126.449 440.527 C 129.110 444.580,133.251 445.719,135.855 443.116 L 136.941 442.029 137.931 442.560 C 139.574 443.441,142.051 442.796,142.051 441.487 C 142.051 441.283,142.550 440.991,143.160 440.840 C 143.910 440.654,144.464 440.259,144.869 439.621 C 145.198 439.102,145.767 438.599,146.133 438.502 C 146.499 438.405,147.034 437.964,147.322 437.521 C 147.610 437.078,148.227 436.373,148.692 435.955 C 149.844 434.922,149.838 433.474,148.674 431.746 C 148.198 431.039,146.660 428.120,145.256 425.260 C 143.852 422.400,141.253 417.808,139.480 415.056 C 135.311 408.587,135.535 409.065,135.249 406.035 C 135.045 403.865,134.821 403.087,133.941 401.486 C 131.379 396.824,131.499 392.743,134.906 368.648 C 138.535 342.980,138.457 341.405,132.847 326.895 C 130.826 321.668,130.648 317.817,131.953 307.578 C 136.664 270.600,136.396 255.965,130.570 232.095 C 129.672 228.418,128.665 224.272,128.331 222.883 C 127.899 221.081,127.654 218.651,127.477 214.413 C 127.201 207.786,126.835 205.303,125.105 198.319 C 124.233 194.798,123.988 193.330,124.184 192.814 C 126.142 187.665,125.505 182.695,122.216 177.443 L 120.802 175.186 120.718 163.665 C 120.623 150.606,120.398 152.211,123.473 143.982 C 125.268 139.180,125.697 137.657,126.513 133.203 L 126.746 131.933 128.174 135.171 C 128.960 136.952,130.486 139.998,131.565 141.939 C 134.915 147.960,136.039 151.955,136.417 159.177 C 136.696 164.519,137.180 166.625,138.518 168.326 C 139.078 169.038,139.094 169.215,138.743 170.802 C 137.434 176.717,138.308 182.464,142.069 192.649 C 148.006 208.731,148.369 210.042,148.411 215.602 C 148.447 220.366,148.121 221.417,145.465 225.111 C 142.568 229.139,142.056 231.266,142.053 239.287 C 142.049 247.892,143.259 250.093,146.259 246.939 C 147.721 245.403,148.086 244.498,148.690 240.917 C 149.739 234.704,151.242 235.721,154.210 244.648 L 154.876 246.651 153.920 248.363 C 153.394 249.304,152.030 251.712,150.889 253.714 C 148.609 257.714,148.360 259.216,149.547 261.813 C 149.809 262.385,150.168 263.321,150.346 263.893 C 151.018 266.056,151.830 267.036,152.343 266.304 C 152.855 265.573,153.343 265.725,153.343 266.615 C 153.343 267.297,155.143 269.242,155.774 269.242 C 156.526 269.242,160.671 257.437,161.069 254.163 C 162.061 246.001,162.569 236.036,162.845 219.316 C 163.079 205.226,163.149 203.857,164.005 196.903 C 165.599 183.951,165.504 178.950,163.567 173.982 C 162.834 172.102,162.744 171.423,162.561 166.419 C 162.306 159.437,161.008 155.252,157.355 149.629 C 156.440 148.221,156.379 147.951,156.195 144.504 C 155.760 136.331,154.861 130.900,153.014 125.276 C 151.870 121.790,151.857 121.701,152.297 120.372 C 154.561 113.536,154.316 107.283,151.402 97.578 C 148.982 89.515,148.169 88.284,143.762 86.017 C 142.248 85.238,140.374 84.033,139.596 83.337 C 138.726 82.560,137.500 81.843,136.411 81.476 C 135.199 81.066,133.959 80.301,132.477 79.049 C 129.348 76.406,126.287 74.623,117.074 70.073 C 107.452 65.322,106.345 64.506,105.663 61.664 C 105.028 59.018,104.826 56.409,105.184 55.468 C 105.356 55.015,105.582 53.727,105.686 52.607 C 105.808 51.297,105.994 50.614,106.207 50.694 C 108.776 51.659,112.893 42.719,112.050 38.005 C 111.497 34.907,110.633 34.046,108.956 34.920 C 108.487 35.164,108.053 35.364,107.990 35.364 C 107.927 35.364,107.875 34.257,107.875 32.905 C 107.875 25.613,106.198 19.831,103.215 16.842 C 99.948 13.570,92.941 11.547,87.747 12.378 M314.413 12.107 C 303.084 13.211,298.068 19.593,298.068 32.905 C 298.068 34.257,298.017 35.364,297.954 35.364 C 297.891 35.364,297.456 35.164,296.988 34.920 C 295.311 34.046,294.447 34.907,293.893 38.005 C 293.051 42.719,297.168 51.659,299.737 50.694 C 299.950 50.614,300.138 51.324,300.265 52.694 C 300.398 54.117,300.768 55.481,301.387 56.825 L 302.312 58.831 301.499 61.062 C 300.102 64.890,299.539 65.292,288.112 70.613 C 280.083 74.351,276.767 76.261,273.467 79.049 C 271.985 80.301,270.744 81.066,269.532 81.476 C 268.443 81.843,267.218 82.560,266.348 83.337 C 265.570 84.033,263.705 85.233,262.204 86.006 C 257.745 88.300,256.980 89.455,254.541 97.578 C 251.628 107.283,251.383 113.536,253.647 120.372 C 254.087 121.701,254.074 121.790,252.929 125.276 C 251.110 130.818,250.325 135.546,249.680 144.874 C 249.445 148.255,249.378 148.524,248.382 150.074 C 244.779 155.679,243.639 159.409,243.383 166.419 C 243.200 171.423,243.110 172.102,242.377 173.982 C 240.440 178.950,240.344 183.922,241.938 196.880 C 242.802 203.908,242.865 205.144,243.097 219.762 C 243.321 233.828,243.715 242.249,244.593 251.709 C 244.956 255.622,245.137 256.443,246.500 260.327 C 248.792 266.862,249.772 269.242,250.169 269.242 C 250.800 269.242,252.600 267.297,252.600 266.615 C 252.600 265.729,253.088 265.572,253.594 266.295 L 254.034 266.923 254.491 266.225 C 257.717 261.300,257.670 258.005,254.322 254.267 C 252.699 252.454,252.600 252.251,251.994 249.441 C 251.190 245.715,251.158 246.102,252.585 242.317 C 255.032 235.823,256.545 235.199,257.196 240.416 C 257.746 244.832,259.630 248.143,261.592 248.143 C 263.554 248.143,264.015 245.987,263.818 237.746 C 263.639 230.239,263.324 229.048,260.485 225.111 C 255.739 218.532,256.096 213.676,262.617 196.137 C 267.646 182.610,268.708 176.704,267.197 170.662 C 266.837 169.220,266.853 169.054,267.419 168.334 C 268.761 166.628,269.247 164.524,269.532 159.177 C 269.913 152.032,271.113 147.657,274.150 142.340 C 275.061 140.745,276.519 137.890,277.392 135.995 L 278.978 132.548 279.764 135.689 C 280.197 137.416,281.230 140.657,282.060 142.892 C 282.889 145.126,283.961 148.091,284.441 149.480 L 285.314 152.006 285.311 162.841 L 285.309 173.676 283.360 177.551 C 280.304 183.631,280.004 186.058,281.569 192.057 C 282.009 193.743,281.999 193.839,280.989 197.703 C 279.356 203.944,278.761 207.951,278.479 214.596 C 278.218 220.734,277.805 223.252,276.045 229.421 C 271.427 245.616,269.730 264.181,271.266 281.724 C 271.995 290.057,272.837 298.277,273.564 304.160 C 273.968 307.429,274.421 311.107,274.571 312.333 C 274.721 313.559,274.796 316.903,274.738 319.764 L 274.632 324.967 273.251 328.828 C 272.491 330.952,271.539 333.607,271.136 334.729 C 269.457 339.404,269.128 341.887,269.121 349.926 C 269.114 358.268,269.164 358.707,271.769 373.254 C 274.956 391.055,274.923 396.795,271.594 403.827 C 270.791 405.524,270.134 407.219,270.134 407.595 C 270.134 408.120,269.600 408.626,267.831 409.781 C 264.223 412.136,262.404 413.486,260.429 415.279 C 258.826 416.733,258.446 416.939,257.368 416.939 C 255.005 416.939,253.789 418.097,253.789 420.350 C 253.789 421.365,255.118 422.883,256.008 422.883 C 256.222 422.883,256.483 423.337,256.587 423.893 C 257.007 426.134,259.027 427.439,265.193 429.457 C 268.211 430.445,269.337 430.999,272.137 432.880 C 276.206 435.613,277.351 435.996,281.426 435.988 C 292.811 435.969,294.901 430.690,290.174 413.890 C 288.606 408.317,288.646 409.065,289.789 406.645 L 290.722 404.670 290.025 401.221 C 287.940 390.902,289.788 380.896,296.783 364.636 C 299.325 358.729,301.425 352.745,302.097 349.498 C 302.753 346.328,302.588 345.416,299.138 333.120 L 297.757 328.201 299.273 325.691 C 304.749 316.619,305.503 313.684,307.131 295.097 C 309.031 273.391,309.231 272.134,314.042 251.709 C 315.144 247.030,315.498 240.991,315.034 234.770 C 314.916 233.178,315.260 229.871,315.518 230.129 C 315.962 230.573,316.371 234.077,316.140 235.455 C 315.997 236.304,315.869 238.938,315.855 241.308 C 315.827 246.006,315.852 246.165,318.315 256.761 C 321.726 271.434,322.332 275.379,323.769 292.273 C 325.578 313.529,326.010 315.382,331.325 324.708 L 333.382 328.316 331.917 333.475 C 328.167 346.676,328.122 347.233,330.274 353.926 C 331.033 356.290,332.581 360.369,333.712 362.990 C 341.002 379.878,343.156 390.361,341.316 400.000 C 340.427 404.663,340.423 404.482,341.446 406.812 L 342.392 408.967 341.048 413.668 C 336.196 430.628,338.250 435.947,349.668 435.989 C 353.745 436.004,354.700 435.691,358.880 432.963 C 361.858 431.021,363.118 430.402,366.119 429.409 C 372.294 427.367,374.197 426.131,374.617 423.890 C 374.756 423.150,374.999 422.829,375.521 422.698 C 378.927 421.843,377.499 416.939,373.845 416.939 C 372.754 416.939,372.367 416.714,370.249 414.847 C 368.943 413.697,366.344 411.761,364.472 410.546 C 362.601 409.331,361.061 408.233,361.049 408.106 C 360.932 406.778,360.664 405.967,359.774 404.244 C 356.121 397.176,356.111 391.071,359.720 371.322 C 361.841 359.712,362.100 357.333,362.079 349.629 C 362.056 340.836,361.758 339.319,358.110 329.421 L 356.577 325.260 356.461 319.316 C 356.354 313.887,356.432 312.691,357.357 305.498 C 361.882 270.343,361.534 254.945,355.693 231.822 C 353.222 222.037,352.749 219.419,352.749 215.511 C 352.749 209.940,351.693 202.914,349.895 196.523 C 349.145 193.859,349.138 193.741,349.590 191.917 C 351.130 185.713,350.857 183.530,347.778 177.454 L 345.765 173.482 345.785 162.744 C 345.808 150.610,345.572 152.145,348.675 143.982 C 349.732 141.204,350.892 137.660,351.253 136.107 C 351.614 134.554,351.972 133.087,352.048 132.846 C 352.124 132.605,352.684 133.541,353.292 134.926 C 354.404 137.460,356.151 140.894,357.770 143.730 C 360.067 147.754,361.334 152.866,361.665 159.452 C 361.931 164.742,362.222 166.029,363.648 168.213 C 364.239 169.119,364.291 169.405,364.023 170.293 C 362.310 175.963,363.494 182.754,368.506 195.999 C 375.012 213.194,375.430 218.590,370.753 225.021 C 368.640 227.926,368.244 228.764,367.716 231.447 C 367.144 234.350,367.057 243.428,367.578 245.840 C 368.625 250.690,373.004 247.433,373.869 241.162 C 374.714 235.042,376.292 235.715,378.910 243.312 L 379.872 246.101 379.397 248.236 C 379.137 249.411,378.834 250.840,378.725 251.412 C 378.592 252.110,377.941 253.078,376.746 254.358 C 373.964 257.337,373.567 258.949,374.851 262.045 C 375.239 262.980,375.711 264.212,375.900 264.785 C 376.529 266.686,376.998 267.078,377.661 266.259 L 378.223 265.565 378.582 266.651 C 379.308 268.851,381.276 269.846,381.794 268.276 C 381.969 267.745,383.001 264.857,384.086 261.859 C 386.864 254.181,387.654 245.769,388.125 218.871 C 388.274 210.371,388.466 203.016,388.552 202.526 C 390.749 190.061,390.750 178.782,388.556 173.124 C 387.949 171.560,387.838 170.657,387.716 166.270 C 387.529 159.539,386.615 156.433,383.088 150.546 C 381.663 148.166,381.647 148.111,381.447 144.874 C 380.891 135.830,380.066 130.891,378.143 125.087 L 377.102 121.943 378.061 118.401 C 379.776 112.072,379.324 106.593,376.250 96.434 C 374.089 89.290,373.311 88.178,368.997 86.066 C 367.493 85.329,365.864 84.306,365.375 83.792 C 364.456 82.824,362.579 81.755,360.772 81.171 C 360.199 80.986,358.862 80.075,357.800 79.147 C 355.058 76.751,352.479 75.155,347.467 72.753 C 330.700 64.717,330.933 64.868,329.708 61.191 L 328.909 58.792 329.808 56.810 C 330.398 55.509,330.777 54.087,330.912 52.669 C 331.042 51.297,331.241 50.532,331.457 50.572 C 332.716 50.810,333.937 49.365,336.397 44.725 C 338.701 40.381,337.276 33.342,334.386 34.792 C 333.943 35.015,333.481 35.245,333.358 35.305 C 333.236 35.365,333.134 34.433,333.133 33.234 C 333.123 24.519,330.899 18.310,326.767 15.468 C 323.878 13.480,317.666 11.790,314.413 12.107 M93.848 13.509 C 103.552 15.550,106.714 20.356,106.802 33.193 L 106.835 38.007 107.875 37.018 C 110.184 34.822,110.557 34.986,111.162 38.463 C 111.664 41.342,111.393 42.608,109.628 45.642 C 107.121 49.950,106.383 50.452,105.312 48.578 L 104.711 47.528 104.727 50.436 C 104.754 55.612,104.303 56.387,98.590 60.956 C 91.058 66.980,87.789 66.510,78.803 58.113 C 76.285 55.760,76.032 55.099,76.029 50.846 L 76.025 47.400 75.450 48.514 C 74.387 50.572,73.400 49.829,70.677 44.917 C 69.493 42.782,69.419 42.511,69.450 40.416 C 69.519 35.790,70.613 34.651,72.755 36.975 L 73.991 38.316 73.818 35.874 C 73.275 28.202,75.424 19.662,78.532 17.141 C 82.429 13.978,88.846 12.457,93.848 13.509 M320.900 13.962 C 329.359 16.351,333.003 23.465,332.125 35.874 L 331.952 38.316 333.189 36.975 C 335.331 34.651,336.424 35.790,336.493 40.416 C 336.525 42.511,336.451 42.782,335.267 44.917 C 332.543 49.829,331.558 50.571,330.491 48.514 L 329.913 47.400 329.920 50.522 C 329.933 55.759,328.831 58.501,327.957 55.405 C 327.307 53.105,327.243 52.946,327.215 53.571 C 327.190 54.133,328.455 60.097,328.959 61.793 C 329.125 62.354,329.219 62.856,329.167 62.908 C 328.831 63.244,325.277 57.660,323.161 53.472 C 319.602 46.426,317.750 45.165,316.349 48.833 C 315.447 51.195,315.824 65.685,316.869 68.796 C 318.337 73.171,321.486 77.323,325.120 79.678 C 326.916 80.842,326.917 80.754,325.109 81.980 C 317.045 87.450,315.195 93.345,316.065 110.808 C 316.293 115.387,316.478 125.595,316.484 133.886 C 316.494 149.500,316.541 150.074,317.804 150.074 C 318.075 150.074,318.247 150.845,318.387 152.675 C 318.727 157.145,319.895 163.297,321.728 170.282 C 322.307 172.489,323.182 175.831,323.672 177.710 C 325.546 184.895,327.280 186.754,331.186 185.771 C 332.461 185.450,332.596 185.480,334.092 186.432 C 334.955 186.980,336.798 187.936,338.187 188.556 C 342.114 190.309,345.100 191.848,345.914 192.541 C 346.355 192.916,345.751 192.698,344.428 192.005 C 337.211 188.223,334.001 188.961,328.044 195.776 C 320.687 204.191,317.436 210.661,316.313 219.124 C 315.692 223.801,315.512 224.595,315.392 223.180 C 314.483 212.493,311.748 206.111,304.185 197.028 C 297.505 189.005,294.280 188.074,286.776 192.004 C 285.335 192.759,284.833 192.934,285.356 192.499 C 286.261 191.749,287.582 191.058,293.090 188.457 C 295.174 187.474,297.246 186.410,297.696 186.094 C 298.429 185.580,298.709 185.553,300.400 185.838 C 303.672 186.389,305.397 184.834,306.780 180.089 C 310.258 168.156,312.919 155.643,312.926 151.189 C 312.927 150.441,313.062 150.074,313.337 150.074 C 314.537 150.074,314.551 149.876,314.825 129.450 C 315.225 99.576,315.209 96.809,314.626 94.205 C 313.541 89.356,310.314 84.715,306.166 82.037 C 304.335 80.854,304.326 80.828,305.542 80.110 C 309.811 77.589,314.033 71.341,314.983 66.142 C 315.385 63.938,315.405 50.744,315.008 49.315 C 313.828 45.069,311.449 46.486,307.979 53.504 C 305.855 57.798,304.416 60.154,302.724 62.107 C 301.920 63.033,301.848 63.065,302.039 62.404 C 302.552 60.629,303.708 55.348,303.855 54.107 C 303.994 52.924,303.936 53.017,303.402 54.822 C 302.626 57.444,302.658 57.426,301.877 55.692 C 301.327 54.473,301.218 53.689,301.210 50.892 C 301.199 47.091,301.230 47.206,300.574 48.588 C 299.622 50.596,298.459 49.620,295.765 44.551 C 294.249 41.697,294.125 38.396,295.441 35.882 C 295.799 35.197,297.145 35.834,298.119 37.152 C 299.095 38.472,299.105 38.433,299.150 33.059 C 299.242 22.156,301.760 16.985,308.101 14.672 C 312.842 12.943,316.564 12.737,320.900 13.962 M79.979 36.537 C 78.528 36.903,77.638 37.858,78.160 38.488 C 80.176 40.917,87.354 40.699,85.754 38.257 C 84.705 36.656,82.321 35.946,79.979 36.537 M95.687 37.691 C 93.185 39.932,97.656 41.280,101.315 39.387 C 103.832 38.086,102.886 36.763,99.321 36.601 L 97.020 36.496 95.687 37.691 M102.229 38.030 C 102.229 38.252,100.441 39.323,100.305 39.182 C 100.203 39.077,100.060 37.473,100.117 37.078 C 100.153 36.826,102.229 37.761,102.229 38.030 M80.591 38.187 C 80.732 39.389,80.771 39.365,79.629 38.774 C 78.578 38.230,78.530 37.939,79.421 37.510 C 80.413 37.031,80.459 37.058,80.591 38.187 M85.290 38.770 C 85.290 39.069,84.113 39.822,83.646 39.822 C 83.575 39.822,83.738 39.357,84.009 38.788 C 84.491 37.778,85.290 37.767,85.290 38.770 M96.582 38.276 C 96.582 38.571,96.741 38.970,96.934 39.163 C 97.457 39.686,97.069 39.879,96.178 39.540 C 95.337 39.221,95.175 38.674,95.750 38.098 C 96.260 37.588,96.582 37.657,96.582 38.276 M313.922 48.586 C 315.154 49.817,314.776 64.728,313.414 68.644 C 312.274 71.923,308.943 76.541,305.908 79.048 C 298.835 84.893,277.589 87.045,272.746 82.406 L 271.940 81.635 273.192 80.496 C 275.639 78.268,279.736 75.698,284.337 73.504 C 302.670 64.764,303.523 64.064,308.611 53.611 C 310.990 48.724,312.567 47.231,313.922 48.586 M319.588 48.770 C 320.043 49.128,321.261 51.137,322.425 53.451 C 326.924 62.394,329.363 65.001,336.612 68.621 C 338.932 69.780,340.904 70.728,340.993 70.728 C 341.595 70.728,351.513 75.794,353.466 77.098 C 357.668 79.905,359.258 81.521,358.572 82.283 C 353.705 87.693,330.484 84.593,323.707 77.628 C 318.099 71.866,316.907 68.646,316.601 58.437 C 316.306 48.607,316.907 46.661,319.588 48.770 M87.073 48.948 C 87.073 49.385,90.166 50.035,91.129 49.799 C 91.595 49.686,92.344 49.519,92.793 49.428 C 93.243 49.338,93.611 49.129,93.611 48.963 C 93.611 48.773,93.256 48.751,92.645 48.903 C 91.437 49.203,89.639 49.199,88.187 48.894 C 87.504 48.750,87.073 48.771,87.073 48.948 M84.101 54.677 C 84.101 55.114,85.024 55.275,87.320 55.240 C 89.532 55.206,89.555 55.199,88.113 54.974 C 85.237 54.526,84.101 54.442,84.101 54.677 M93.759 54.722 C 90.963 55.075,90.724 55.223,92.905 55.251 C 95.066 55.279,96.636 55.008,96.412 54.644 C 96.323 54.501,96.158 54.400,96.045 54.421 C 95.932 54.442,94.903 54.577,93.759 54.722 M80.253 62.853 C 80.764 64.487,82.368 68.834,83.818 72.511 C 85.269 76.189,86.661 79.995,86.913 80.969 C 87.638 83.776,87.388 94.052,86.649 91.828 C 86.386 91.038,85.323 88.287,81.136 77.563 C 79.700 73.886,78.304 69.941,78.034 68.796 C 77.344 65.874,76.466 59.514,76.613 58.509 L 76.737 57.668 78.031 58.774 C 79.184 59.760,79.427 60.206,80.253 62.853 M103.851 62.237 C 102.939 68.523,102.256 70.911,99.052 79.015 C 97.332 83.365,95.534 87.979,95.057 89.268 C 93.895 92.409,93.794 92.512,93.564 90.788 C 92.764 84.788,93.327 81.509,96.544 73.456 C 97.829 70.240,99.454 65.869,100.157 63.744 C 101.291 60.313,101.569 59.760,102.648 58.798 C 104.291 57.334,104.483 57.884,103.851 62.237 M85.861 64.834 C 89.447 67.007,93.111 66.325,98.129 62.550 C 99.321 61.653,100.334 61.031,100.379 61.167 C 100.502 61.534,98.579 66.941,96.292 72.660 C 92.760 81.491,92.327 83.797,93.011 90.148 L 93.384 93.610 92.639 94.587 C 90.415 97.503,90.408 107.460,92.624 116.466 C 94.270 123.160,100.608 127.594,110.040 128.652 C 111.870 128.857,115.980 130.398,114.826 130.447 C 114.212 130.473,111.733 132.890,110.949 134.228 C 109.965 135.907,109.929 138.235,110.850 140.573 C 111.463 142.127,111.467 142.228,110.983 143.765 C 110.440 145.492,110.534 147.627,111.297 150.866 C 111.625 152.260,111.640 153.166,111.371 155.487 C 111.131 157.566,111.127 158.665,111.359 159.419 C 111.619 160.269,111.571 160.814,111.098 162.327 C 110.442 164.432,110.380 166.278,110.745 172.907 C 111.115 179.643,112.765 179.797,118.279 173.611 L 119.707 172.009 119.809 173.817 L 119.911 175.624 117.236 176.917 C 107.929 181.418,106.062 190.559,112.880 198.238 L 114.049 199.554 113.451 200.395 C 113.122 200.858,110.783 205.271,108.253 210.202 C 105.724 215.133,103.204 219.903,102.653 220.802 C 102.102 221.701,101.046 223.888,100.305 225.661 C 97.500 232.378,95.263 234.322,90.342 234.322 C 85.907 234.322,83.833 232.840,81.625 228.093 C 80.179 224.984,78.935 222.522,72.910 210.847 C 70.463 206.107,68.103 201.663,67.663 200.972 C 66.669 199.406,66.644 199.599,68.033 198.021 C 74.564 190.601,72.745 181.470,63.883 177.191 L 60.961 175.780 60.941 173.759 L 60.921 171.737 62.380 173.490 C 65.397 177.115,69.147 179.119,69.693 177.398 C 69.906 176.727,70.206 170.034,70.193 166.260 C 70.187 164.713,69.984 163.280,69.615 162.185 C 69.286 161.212,69.148 160.336,69.288 160.115 C 69.595 159.631,69.580 156.331,69.261 154.391 C 69.084 153.311,69.168 152.188,69.572 150.230 C 70.237 147.009,70.270 145.568,69.718 143.736 C 69.331 142.451,69.353 142.197,70.039 140.049 C 71.186 136.450,70.577 134.373,67.596 131.715 L 65.927 130.228 67.510 129.491 C 68.381 129.086,69.896 128.685,70.877 128.601 C 80.268 127.794,86.846 122.817,88.396 115.345 C 90.374 105.804,90.299 97.996,88.200 94.833 L 87.335 93.529 87.649 90.969 C 88.450 84.436,87.999 81.583,84.977 74.091 C 83.055 69.326,80.238 61.460,80.238 60.860 C 80.238 60.730,81.135 61.349,82.232 62.234 C 83.329 63.120,84.962 64.290,85.861 64.834 M75.811 68.238 C 74.495 69.733,72.673 72.652,70.281 77.101 C 66.466 84.193,62.676 85.358,52.192 82.664 C 49.598 81.998,47.420 81.397,47.352 81.330 C 46.576 80.553,53.754 76.066,63.345 71.335 C 73.029 66.557,74.871 65.311,75.691 62.982 L 76.226 61.462 76.645 64.138 L 77.064 66.814 75.811 68.238 M104.900 62.691 C 105.623 65.377,106.905 66.219,120.256 72.781 C 126.390 75.796,129.639 77.775,132.227 80.075 L 133.694 81.378 128.586 82.654 C 117.024 85.542,114.571 84.562,109.212 74.912 C 107.741 72.263,105.901 69.379,105.122 68.502 L 103.706 66.908 104.073 64.212 C 104.496 61.111,104.481 61.137,104.900 62.691 M77.862 70.134 C 78.069 71.033,78.688 72.864,79.238 74.203 C 80.693 77.747,80.326 79.193,77.140 82.456 C 73.322 86.367,69.056 87.210,63.917 85.069 L 62.901 84.645 64.543 83.978 C 67.936 82.599,69.492 80.800,72.635 74.619 C 74.782 70.396,76.904 67.404,77.267 68.087 C 77.388 68.314,77.656 69.235,77.862 70.134 M105.499 69.990 C 105.951 70.646,107.222 72.893,108.322 74.984 C 111.427 80.885,113.005 82.703,116.113 83.967 L 117.783 84.645 116.767 85.065 C 113.330 86.483,112.726 86.601,110.784 86.240 C 106.793 85.498,102.922 82.658,101.252 79.248 C 100.250 77.201,100.241 77.407,101.467 74.331 C 102.029 72.921,102.715 70.861,102.992 69.751 C 103.564 67.461,103.767 67.480,105.499 69.990 M82.318 82.078 L 83.846 85.999 83.156 86.537 C 81.291 87.992,76.800 88.477,72.427 87.696 C 69.778 87.222,69.368 86.928,70.954 86.637 C 74.490 85.987,80.535 80.887,80.535 78.554 C 80.535 77.689,80.851 78.313,82.318 82.078 M102.397 82.122 C 104.100 84.268,108.486 86.756,110.617 86.785 C 112.150 86.805,110.196 87.398,107.082 87.857 C 103.486 88.387,101.044 88.161,98.577 87.070 C 96.701 86.240,96.708 86.437,98.421 82.051 L 99.948 78.141 100.736 79.582 C 101.170 80.375,101.917 81.518,102.397 82.122 M307.965 84.388 C 313.916 89.966,315.695 96.568,314.695 109.361 C 314.451 112.485,314.302 120.334,314.284 130.994 C 314.255 148.714,314.277 148.433,312.913 148.076 C 311.321 147.660,308.961 144.705,302.140 134.584 C 293.513 121.786,292.764 118.333,295.796 105.349 C 298.821 92.399,297.978 91.232,284.844 90.172 C 280.595 89.829,277.860 88.250,277.860 86.141 L 277.860 85.254 280.609 85.454 C 287.136 85.929,297.782 84.183,302.229 81.908 L 303.566 81.224 304.741 81.845 C 305.387 82.187,306.838 83.331,307.965 84.388 M329.285 82.079 C 334.052 84.311,344.224 85.918,350.637 85.451 L 353.428 85.248 353.247 86.383 C 352.871 88.746,350.566 89.826,344.833 90.323 C 338.219 90.896,336.047 91.592,334.719 93.563 C 333.320 95.639,333.417 97.122,335.564 106.389 C 338.493 119.031,337.646 122.076,326.846 137.741 C 321.598 145.353,320.318 146.959,318.927 147.668 C 316.835 148.736,316.944 149.641,316.896 130.843 C 316.872 121.444,316.710 112.387,316.529 110.401 C 315.390 97.848,317.022 90.600,322.183 85.297 C 323.760 83.677,327.161 81.073,327.489 81.235 C 327.571 81.275,328.379 81.655,329.285 82.079 M52.271 83.358 C 55.873 84.269,58.179 84.695,59.505 84.695 C 61.082 84.695,62.028 84.924,64.474 85.893 C 72.119 88.923,78.846 89.444,82.995 87.328 L 84.122 86.753 84.527 87.730 C 85.420 89.880,86.478 92.529,86.478 92.612 C 86.478 92.660,85.910 92.321,85.215 91.860 C 79.373 87.979,63.275 90.391,57.132 96.068 C 56.279 96.857,56.292 96.676,57.220 94.828 C 60.093 89.108,57.041 86.283,48.821 87.056 C 44.467 87.465,42.383 87.178,41.294 86.018 L 40.606 85.286 41.477 84.359 C 43.910 81.768,45.430 81.628,52.271 83.358 M136.181 82.375 C 136.832 82.570,137.985 83.293,138.742 83.981 L 140.119 85.232 139.419 85.981 C 138.276 87.207,136.434 87.477,132.011 87.068 C 123.615 86.290,120.739 88.868,123.466 94.725 C 124.307 96.531,124.308 96.531,122.822 95.514 C 114.457 89.791,101.048 88.057,95.302 91.957 L 94.275 92.654 95.320 89.938 C 96.613 86.578,96.575 86.618,97.802 87.330 C 101.477 89.464,108.423 88.931,116.298 85.911 C 118.700 84.990,119.863 84.719,121.991 84.585 C 123.731 84.475,126.171 84.006,128.975 83.242 C 133.734 81.944,134.453 81.857,136.181 82.375 M272.662 83.047 C 273.402 83.612,274.740 84.305,275.636 84.587 C 277.113 85.053,277.266 85.181,277.266 85.953 C 277.266 88.843,279.729 90.402,285.290 91.031 L 288.707 91.418 287.667 91.957 C 285.972 92.836,282.863 95.087,281.393 96.499 L 280.023 97.817 279.662 96.382 C 278.433 91.499,274.347 87.514,268.613 85.610 L 266.183 84.803 267.382 83.796 C 268.487 82.868,270.053 82.098,270.948 82.043 C 271.151 82.031,271.922 82.483,272.662 83.047 M362.110 82.727 C 362.927 83.113,363.899 83.758,364.269 84.160 L 364.943 84.892 363.084 85.409 C 357.244 87.033,352.299 91.802,351.398 96.680 L 351.188 97.819 350.111 96.804 C 348.404 95.196,346.522 93.791,344.298 92.463 L 342.237 91.233 343.852 91.223 C 349.661 91.186,353.439 89.292,353.852 86.211 C 353.996 85.141,354.091 85.053,355.600 84.577 C 356.478 84.300,357.766 83.622,358.464 83.070 C 359.997 81.857,360.220 81.836,362.110 82.727 M40.529 86.048 C 41.019 87.325,43.227 87.757,48.136 87.537 C 53.747 87.286,55.142 87.544,56.497 89.088 C 58.375 91.227,57.021 95.207,52.868 99.753 C 50.296 102.570,48.504 105.728,47.719 108.831 C 45.876 116.112,34.382 125.515,30.816 122.658 C 29.234 121.391,27.459 114.129,27.748 110.104 C 28.261 102.972,31.797 91.326,34.147 89.032 C 35.977 87.246,40.226 85.258,40.529 86.048 M143.142 86.781 C 146.847 88.622,147.950 89.981,149.427 94.531 C 152.642 104.430,153.557 110.442,152.579 115.243 C 150.978 123.105,149.696 124.461,145.646 122.575 C 139.184 119.567,134.831 114.529,132.562 107.429 C 131.707 104.757,129.813 101.733,127.348 99.108 C 123.567 95.082,122.329 90.726,124.431 88.847 C 125.913 87.522,127.299 87.290,132.299 87.531 C 137.230 87.769,139.061 87.472,139.915 86.295 C 140.552 85.419,140.335 85.386,143.142 86.781 M267.710 86.046 C 277.367 88.914,282.120 99.140,277.279 106.630 C 275.615 109.205,274.525 109.838,266.128 113.102 C 262.518 114.505,259.657 116.334,256.942 118.974 C 255.815 120.070,254.852 120.924,254.801 120.873 C 254.451 120.524,253.148 114.422,253.009 112.481 C 252.513 105.575,256.920 90.558,260.110 88.283 C 263.257 86.038,265.479 85.384,267.710 86.046 M368.319 86.777 C 373.250 89.120,375.793 94.615,377.879 107.429 C 378.478 111.109,377.537 119.488,376.367 120.894 C 376.325 120.944,375.307 120.031,374.104 118.866 C 371.160 116.014,368.639 114.518,363.081 112.327 C 355.800 109.456,354.186 108.217,352.746 104.393 C 350.041 97.212,354.542 89.093,362.785 86.284 C 365.402 85.392,365.403 85.392,368.319 86.777 M81.150 90.820 C 86.374 92.369,89.459 96.051,89.445 100.723 C 89.440 102.546,88.455 111.411,87.945 114.224 C 86.670 121.252,82.669 125.285,74.740 127.534 C 64.880 130.330,57.574 126.159,49.079 112.882 L 47.814 110.906 48.295 109.019 C 49.877 102.820,54.705 97.560,61.889 94.211 C 68.875 90.955,76.862 89.549,81.150 90.820 M108.769 90.937 C 121.371 93.505,130.241 100.221,132.405 108.833 L 132.905 110.825 131.642 112.842 C 122.434 127.544,113.922 131.373,102.080 126.140 C 94.624 122.845,91.539 115.676,91.408 101.337 C 91.331 92.963,98.281 88.799,108.769 90.937 M293.700 92.268 C 297.126 93.699,297.469 97.681,294.924 106.491 C 294.365 108.426,293.908 110.285,293.908 110.620 C 293.908 110.956,293.435 111.943,292.857 112.814 L 291.807 114.396 290.257 113.786 C 286.336 112.243,281.680 109.176,279.879 106.949 L 279.009 105.874 279.491 104.216 C 279.757 103.304,280.024 101.648,280.087 100.536 C 280.214 98.256,280.553 97.780,283.911 95.174 C 288.417 91.677,290.679 91.006,293.700 92.268 M342.729 92.315 C 347.532 94.744,350.964 97.869,350.971 99.820 C 350.976 101.124,351.582 104.486,352.005 105.552 C 352.497 106.795,346.487 111.394,341.770 113.383 L 339.378 114.392 338.337 112.847 C 337.764 111.996,337.296 111.096,337.296 110.847 C 337.296 110.597,336.773 108.502,336.134 106.191 C 333.500 96.659,334.050 93.120,338.346 91.966 C 340.469 91.397,340.997 91.439,342.729 92.315 M279.322 107.236 C 280.136 108.757,285.994 112.718,289.525 114.134 C 291.450 114.906,291.512 115.052,290.534 116.499 C 290.149 117.068,289.313 118.647,288.676 120.008 L 287.519 122.482 284.398 122.381 C 278.535 122.191,277.654 121.328,276.310 114.459 C 275.378 109.691,275.371 109.596,275.942 109.288 C 276.262 109.115,276.991 108.462,277.563 107.836 C 278.752 106.535,278.917 106.478,279.322 107.236 M354.081 108.303 L 355.763 109.919 354.822 114.597 C 353.470 121.316,352.628 122.131,346.805 122.363 L 343.685 122.487 341.727 118.619 C 339.786 114.786,339.775 114.749,340.472 114.574 C 343.090 113.917,348.442 110.613,350.806 108.195 C 352.569 106.392,352.074 106.375,354.081 108.303 M275.310 114.339 C 275.742 116.586,276.675 121.232,277.382 124.663 C 278.172 128.498,278.572 131.073,278.419 131.349 C 278.282 131.596,277.625 133.034,276.960 134.546 C 275.718 137.364,275.053 138.684,272.682 143.034 C 271.192 145.768,270.432 147.773,269.507 151.412 C 268.488 155.424,266.445 158.063,263.150 159.628 C 260.273 160.995,260.229 160.949,261.665 158.097 C 265.664 150.156,269.612 136.587,268.362 135.081 C 265.290 131.378,258.484 145.269,256.298 159.703 C 255.944 162.045,253.700 157.825,251.532 150.735 L 250.466 147.251 250.953 141.308 C 251.850 130.354,253.905 122.885,256.734 120.294 C 260.742 116.622,264.781 114.127,270.014 112.093 C 271.665 111.452,273.270 110.779,273.581 110.599 C 273.891 110.418,274.231 110.267,274.335 110.262 C 274.439 110.257,274.878 112.091,275.310 114.339 M365.294 113.846 C 369.754 116.105,375.404 120.668,376.286 122.724 C 378.311 127.449,379.529 133.298,380.252 141.773 L 380.723 147.290 379.052 152.364 C 376.853 159.040,375.014 162.166,374.804 159.584 C 373.835 147.682,365.524 131.019,362.704 135.324 C 361.620 136.977,368.335 158.529,370.315 159.753 C 371.240 160.324,370.497 160.694,369.316 160.251 C 365.565 158.842,362.686 155.689,361.790 152.006 C 360.884 148.286,359.627 144.969,358.137 142.369 C 356.222 139.028,354.982 136.540,353.642 133.351 L 352.546 130.745 354.281 122.059 C 355.236 117.282,356.157 112.687,356.328 111.848 L 356.640 110.324 360.330 111.763 C 362.360 112.554,364.594 113.492,365.294 113.846 M50.124 115.321 L 51.956 117.881 51.669 121.422 C 50.963 130.134,48.967 138.912,46.134 145.765 C 45.661 146.909,45.036 148.715,44.744 149.777 C 42.937 156.362,34.013 168.955,32.798 166.635 C 28.313 158.075,26.978 138.777,30.183 128.826 C 31.450 124.892,31.684 124.568,33.909 123.672 C 38.823 121.695,44.102 117.297,46.360 113.300 C 47.378 111.497,47.409 111.473,47.845 112.111 C 48.091 112.469,49.116 113.913,50.124 115.321 M137.284 117.168 C 139.668 119.847,146.506 124.220,148.310 124.220 C 148.917 124.220,149.742 126.035,150.814 129.734 C 153.550 139.177,152.952 151.064,149.136 163.076 C 147.657 167.732,147.822 167.678,144.785 164.515 C 140.253 159.794,138.042 156.033,135.928 149.451 C 135.330 147.587,134.540 145.461,134.173 144.725 C 132.568 141.507,130.216 131.678,129.441 124.952 C 128.588 117.544,128.504 118.230,130.615 115.323 C 131.631 113.924,132.621 112.472,132.816 112.098 C 133.155 111.444,133.225 111.502,134.595 113.584 C 135.379 114.775,136.589 116.388,137.284 117.168 M293.977 120.344 C 294.051 121.022,293.897 121.113,291.828 121.609 C 287.780 122.580,287.804 121.871,292.054 115.045 L 293.462 112.782 293.680 116.198 C 293.800 118.076,293.934 119.942,293.977 120.344 M339.609 115.973 C 340.585 117.649,341.736 119.721,342.168 120.579 L 342.952 122.140 342.130 122.115 C 339.520 122.038,337.145 121.112,337.221 120.200 C 337.261 119.714,337.379 117.879,337.482 116.122 C 337.585 114.365,337.707 112.927,337.752 112.927 C 337.798 112.927,338.634 114.298,339.609 115.973 M53.155 124.464 L 53.738 129.592 52.999 131.438 C 51.970 134.005,48.965 140.594,48.867 140.497 C 48.823 140.452,49.179 138.892,49.659 137.030 C 50.802 132.593,51.919 126.024,52.180 122.207 C 52.295 120.528,52.430 119.196,52.480 119.246 C 52.530 119.296,52.834 121.644,53.155 124.464 M129.400 129.034 C 129.668 130.748,130.333 133.943,130.878 136.135 C 131.422 138.326,131.836 140.156,131.799 140.202 C 131.688 140.338,129.287 135.250,128.202 132.578 C 127.061 129.766,127.020 129.161,127.634 124.071 C 127.871 122.110,128.086 120.171,128.111 119.762 C 128.137 119.354,128.327 120.571,128.534 122.468 C 128.741 124.365,129.131 127.320,129.400 129.034 M58.105 124.643 L 58.791 125.093 57.905 127.202 C 56.783 129.872,56.178 132.712,56.172 135.339 C 56.169 136.470,56.096 137.324,56.010 137.238 C 55.651 136.879,53.795 123.306,53.791 121.004 L 53.789 120.017 55.604 122.105 C 56.602 123.254,57.728 124.396,58.105 124.643 M126.857 122.585 C 126.290 127.855,125.018 136.580,124.755 136.999 C 124.549 137.328,124.516 137.260,124.627 136.737 C 125.032 134.848,124.149 130.559,122.448 126.152 C 122.113 125.283,122.169 125.193,124.567 122.678 C 125.922 121.258,127.049 120.121,127.071 120.152 C 127.094 120.183,126.997 121.278,126.857 122.585 M280.984 122.599 C 283.239 123.255,288.806 123.035,292.113 122.159 C 293.333 121.836,294.356 121.600,294.387 121.633 C 294.418 121.667,294.867 122.797,295.386 124.145 C 297.049 128.472,303.155 138.063,309.597 146.467 L 312.413 150.141 312.215 152.507 C 311.333 163.088,305.911 183.132,303.504 184.708 C 301.567 185.978,300.496 184.801,299.299 180.089 C 297.930 174.702,295.815 169.882,287.774 153.822 C 283.300 144.888,280.489 136.104,278.157 123.774 C 277.971 122.793,277.746 121.737,277.657 121.426 C 277.503 120.889,277.536 120.891,278.353 121.473 C 278.825 121.809,280.009 122.316,280.984 122.599 M352.852 124.443 C 349.942 138.769,348.251 143.772,342.005 156.537 C 334.151 172.588,333.179 174.828,331.957 179.700 C 330.679 184.796,329.651 185.988,327.660 184.683 C 325.269 183.116,320.422 165.552,319.053 153.492 L 318.648 149.926 319.588 148.880 C 324.962 142.902,334.112 128.667,336.255 122.950 C 336.712 121.732,336.875 121.560,337.413 121.731 C 342.942 123.488,350.274 123.404,352.491 121.557 C 353.591 120.640,353.604 120.740,352.852 124.443 M30.546 123.604 C 31.188 124.473,31.189 124.476,30.622 125.758 C 26.402 135.310,26.760 151.338,31.493 164.713 C 32.643 167.964,32.524 167.892,30.211 163.942 C 25.724 156.277,25.119 154.209,25.368 147.400 C 25.711 138.029,26.533 132.353,28.434 126.226 C 29.631 122.370,29.632 122.368,30.546 123.604 M152.269 126.077 C 155.237 135.402,156.377 150.260,154.545 155.731 C 153.600 158.549,153.115 159.522,150.139 164.562 C 148.207 167.833,148.089 167.919,149.055 165.353 C 153.913 152.446,154.377 135.203,150.121 125.732 L 149.533 124.422 150.156 123.578 C 151.059 122.358,151.101 122.408,152.269 126.077 M80.509 127.036 C 73.273 130.080,71.855 131.616,71.418 136.884 C 70.885 143.310,71.992 143.971,78.335 141.018 C 86.855 137.052,89.155 134.366,88.800 128.798 C 88.549 124.854,86.652 124.451,80.509 127.036 M92.777 126.145 C 90.939 128.482,91.864 133.196,94.810 136.509 C 96.240 138.118,105.561 142.942,107.238 142.942 C 110.313 142.942,110.084 133.878,106.929 130.723 C 103.666 127.460,94.162 124.385,92.777 126.145 M61.017 126.936 C 62.355 127.898,64.541 128.675,66.071 128.733 C 67.473 128.786,67.445 128.874,65.810 129.575 C 64.035 130.336,61.522 130.956,59.168 131.213 L 57.266 131.421 57.439 130.353 C 57.701 128.741,59.155 125.682,59.548 125.918 C 59.731 126.029,60.392 126.487,61.017 126.936 M122.706 128.545 C 123.212 129.942,123.626 131.161,123.626 131.252 C 123.626 131.737,119.145 130.954,116.122 129.941 C 113.496 129.061,113.294 128.824,115.082 128.721 C 116.441 128.643,118.683 127.704,120.357 126.511 C 121.671 125.574,121.613 125.524,122.706 128.545 M87.545 126.745 C 88.913 128.832,87.812 133.901,85.550 135.935 C 82.548 138.634,76.413 141.613,74.288 141.404 C 70.992 141.079,71.357 133.623,74.808 130.779 C 78.956 127.360,86.403 125.001,87.545 126.745 M98.215 126.734 C 103.864 128.861,107.354 131.401,108.107 133.935 C 110.125 140.723,107.649 143.047,101.634 140.012 C 94.457 136.391,93.090 134.858,92.797 130.099 C 92.535 125.844,93.786 125.067,98.215 126.734 M67.378 132.338 C 68.994 133.827,69.866 135.466,69.912 137.100 C 69.949 138.436,69.063 141.456,68.634 141.456 C 67.640 141.456,61.767 135.039,60.477 132.543 L 60.048 131.714 61.390 131.513 C 62.128 131.402,63.227 131.137,63.832 130.924 C 65.133 130.465,65.509 130.615,67.378 132.338 M118.276 131.255 C 119.502 131.533,120.549 131.791,120.603 131.827 C 121.206 132.240,114.323 140.253,112.550 141.202 C 110.494 142.302,110.383 135.393,112.421 133.173 C 114.578 130.824,115.312 130.584,118.276 131.255 M60.478 133.655 C 61.097 134.595,62.136 136.005,62.786 136.788 C 64.252 138.553,64.190 138.614,61.786 137.773 C 58.763 136.717,56.760 135.283,56.765 134.180 C 56.778 131.185,58.673 130.918,60.478 133.655 M123.742 132.417 C 124.652 134.786,122.838 136.658,118.341 137.992 C 116.586 138.513,116.585 138.490,118.268 136.404 C 118.862 135.669,119.789 134.365,120.329 133.507 C 121.382 131.832,123.285 131.224,123.742 132.417 M267.968 137.565 C 267.651 141.916,261.983 157.624,259.683 160.529 C 259.246 161.081,257.634 161.426,257.084 161.086 C 256.291 160.596,258.413 150.583,260.334 145.747 C 263.954 136.635,268.381 131.890,267.968 137.565 M364.818 135.587 C 368.583 138.525,373.225 150.441,374.244 159.780 C 374.395 161.159,374.106 161.377,372.511 161.085 C 369.849 160.597,361.693 137.813,363.269 135.264 C 363.573 134.772,363.847 134.829,364.818 135.587 M57.606 136.365 C 58.040 136.671,58.964 137.209,59.658 137.560 C 60.465 137.968,60.921 138.400,60.921 138.754 C 60.921 139.059,61.245 140.426,61.641 141.793 C 62.496 144.746,62.567 144.598,60.740 143.687 C 58.099 142.371,57.144 141.251,56.927 139.214 C 56.824 138.241,56.680 137.077,56.609 136.627 C 56.455 135.660,56.564 135.631,57.606 136.365 M124.110 136.924 C 124.021 137.537,123.862 138.742,123.758 139.602 C 123.549 141.332,122.482 142.471,119.808 143.818 C 118.201 144.628,118.198 144.625,118.882 142.642 C 119.192 141.744,119.533 140.383,119.640 139.616 C 119.825 138.289,119.912 138.182,121.440 137.409 C 122.322 136.963,123.192 136.420,123.372 136.204 C 123.967 135.486,124.276 135.786,124.110 136.924 M63.880 138.972 C 65.326 139.261,69.133 143.201,69.381 144.664 C 69.754 146.873,68.854 151.560,68.057 151.560 C 66.428 151.560,62.533 144.260,61.649 139.549 C 61.435 138.409,61.440 138.401,62.252 138.605 C 62.702 138.718,63.435 138.883,63.880 138.972 M119.010 139.747 C 118.302 143.995,114.293 151.560,112.750 151.560 C 111.795 151.560,110.836 146.117,111.457 144.228 C 111.968 142.676,115.545 139.351,117.205 138.885 C 119.217 138.321,119.245 138.334,119.010 139.747 M81.724 140.358 C 74.670 143.181,71.262 147.683,71.220 154.235 C 71.187 159.443,72.256 160.185,76.969 158.227 C 81.358 156.404,84.505 155.201,85.802 154.851 C 87.132 154.493,88.332 153.233,88.655 151.857 C 88.859 150.990,88.118 141.960,87.797 141.394 C 86.720 139.499,84.722 139.158,81.724 140.358 M93.882 140.054 C 92.972 140.753,92.676 141.822,92.396 145.413 C 91.764 153.541,91.898 153.893,96.137 155.209 C 97.444 155.615,100.105 156.647,102.049 157.503 C 107.421 159.866,108.567 159.787,109.340 157.003 C 110.363 153.319,108.930 148.103,106.004 144.860 C 102.871 141.388,95.797 138.584,93.882 140.054 M87.134 141.767 C 87.490 142.487,87.700 143.945,87.839 146.657 C 88.150 152.733,87.673 153.677,83.697 154.861 C 82.537 155.206,80.275 156.071,78.670 156.783 C 74.789 158.503,74.012 158.636,72.986 157.751 C 71.486 156.458,71.378 153.363,72.694 149.363 C 74.769 143.052,85.089 137.624,87.134 141.767 M100.582 141.697 C 106.659 144.613,110.495 151.591,108.660 156.395 C 107.719 158.859,107.038 158.880,101.634 156.605 C 99.755 155.814,97.462 154.951,96.538 154.688 C 93.294 153.764,92.571 152.282,92.863 147.152 C 93.292 139.614,94.485 138.771,100.582 141.697 M61.207 145.945 C 61.213 146.697,61.302 148.168,61.404 149.213 C 61.576 150.974,61.553 151.080,61.098 150.649 C 60.691 150.265,57.965 143.540,57.953 142.893 C 57.951 142.785,58.680 143.119,59.573 143.636 C 61.164 144.558,61.196 144.604,61.207 145.945 M122.396 144.205 C 122.051 145.063,121.409 146.739,120.969 147.929 C 119.889 150.847,119.013 151.746,119.279 149.661 C 119.382 148.862,119.465 147.358,119.465 146.318 C 119.465 145.009,119.579 144.425,119.837 144.418 C 120.041 144.413,120.743 144.022,121.397 143.551 C 123.032 142.371,123.112 142.423,122.396 144.205 M118.780 147.920 C 118.480 153.259,117.254 156.476,114.580 158.941 C 113.413 160.017,113.132 160.150,112.610 159.871 C 111.712 159.390,111.660 159.020,112.040 155.835 L 112.387 152.930 114.109 151.050 C 115.057 150.016,116.317 148.247,116.910 147.119 C 117.838 145.353,118.232 144.869,118.841 144.749 C 118.906 144.736,118.879 146.163,118.780 147.920 M63.333 146.285 C 64.254 148.098,65.606 150.015,67.086 151.602 C 68.433 153.047,69.352 157.031,68.824 159.135 C 68.353 161.010,65.168 158.849,63.654 155.630 C 61.429 150.897,61.121 141.928,63.333 146.285 M383.460 153.343 C 386.164 158.583,386.917 161.731,386.907 167.756 L 386.902 171.025 383.635 167.608 C 379.980 163.784,378.883 162.298,378.026 160.008 L 377.439 158.438 378.134 156.708 C 378.516 155.756,379.276 153.603,379.822 151.923 C 380.995 148.317,380.834 148.254,383.460 153.343 M251.666 152.826 C 253.607 158.283,253.651 158.475,253.257 159.781 C 252.716 161.575,250.931 163.996,247.474 167.629 L 244.279 170.986 244.279 167.204 C 244.279 161.231,245.490 156.846,248.604 151.533 C 250.327 148.595,250.131 148.513,251.666 152.826 M25.711 156.315 C 26.754 159.181,27.512 160.669,30.250 165.223 C 37.830 177.834,38.596 187.878,33.258 204.688 C 32.603 206.749,31.989 209.011,31.893 209.715 C 31.695 211.155,31.204 211.456,31.204 210.137 C 31.204 209.199,30.318 204.762,29.567 201.932 C 28.666 198.539,27.383 195.070,24.701 188.765 C 17.707 172.329,17.116 164.014,22.217 153.799 C 24.484 149.260,24.483 149.260,24.708 151.868 C 24.814 153.088,25.265 155.089,25.711 156.315 M158.484 153.708 C 163.522 163.919,162.970 172.538,156.272 188.209 C 152.277 197.557,150.363 203.661,149.516 209.753 C 149.307 211.259,149.259 211.345,149.077 210.550 C 148.897 209.765,148.542 208.510,146.640 201.932 C 142.342 187.064,143.340 176.793,150.151 165.796 C 153.845 159.833,155.394 156.288,156.031 152.341 C 156.474 149.592,156.445 149.576,158.484 153.708 M62.137 153.147 C 63.005 156.371,65.877 160.211,67.722 160.617 C 68.680 160.827,68.987 161.618,69.546 165.311 C 70.600 172.286,64.402 167.174,61.880 158.990 C 61.041 156.269,60.646 150.962,61.324 151.525 C 61.591 151.746,61.956 152.476,62.137 153.147 M119.683 154.160 C 119.340 160.396,115.084 168.499,112.150 168.499 C 111.164 168.499,110.901 167.651,111.196 165.417 C 111.599 162.361,112.056 160.773,112.532 160.773 C 114.219 160.773,117.094 157.374,118.313 153.938 C 118.929 152.201,119.404 151.306,119.728 151.274 C 119.790 151.268,119.770 152.567,119.683 154.160 M344.779 163.517 C 344.688 174.247,344.665 174.617,344.036 175.743 C 342.704 178.129,332.092 186.024,331.720 184.906 C 331.107 183.069,335.292 171.899,340.428 161.664 C 342.601 157.333,344.466 153.488,344.572 153.120 C 344.678 152.753,344.790 152.452,344.819 152.452 C 344.849 152.451,344.831 157.431,344.779 163.517 M295.233 171.013 C 297.069 175.311,299.868 184.629,299.450 185.047 C 298.972 185.526,294.331 182.483,290.404 179.115 C 286.168 175.484,286.391 176.338,286.357 163.596 L 286.328 152.897 290.144 160.464 C 292.242 164.625,294.532 169.372,295.233 171.013 M43.113 162.924 C 42.672 166.238,41.855 167.602,38.409 170.785 L 35.451 173.516 34.132 170.865 L 32.813 168.214 35.307 165.756 C 38.543 162.566,41.481 158.952,42.460 156.955 L 43.239 155.366 43.329 157.995 C 43.379 159.441,43.282 161.659,43.113 162.924 M141.307 161.355 C 142.187 162.424,144.027 164.408,145.396 165.764 L 147.886 168.230 146.585 170.895 L 145.284 173.560 142.317 170.807 C 138.028 166.827,137.349 164.984,137.306 157.211 L 137.296 155.284 138.501 157.347 C 139.164 158.482,140.427 160.285,141.307 161.355 M268.507 159.955 C 268.239 165.183,267.954 165.988,264.905 170.144 L 262.572 173.323 261.732 172.323 C 260.472 170.822,259.188 168.011,258.696 165.676 C 257.933 162.058,257.839 162.237,261.101 161.090 C 264.081 160.042,266.125 158.696,267.663 156.769 C 268.123 156.193,268.550 155.721,268.612 155.721 C 268.673 155.721,268.626 157.626,268.507 159.955 M367.714 160.130 C 368.718 160.594,370.308 161.223,371.248 161.529 C 373.198 162.163,373.179 162.102,372.503 165.372 C 371.954 168.032,371.139 169.963,369.772 171.842 C 368.554 173.518,368.491 173.532,367.773 172.288 C 367.467 171.757,366.580 170.505,365.804 169.505 C 363.166 166.110,362.574 164.091,362.562 158.453 L 362.556 155.687 364.222 157.487 C 365.367 158.724,366.460 159.551,367.714 160.130 M81.213 157.069 C 74.245 158.946,69.809 165.044,71.738 170.095 C 72.934 173.228,74.144 173.311,81.677 170.779 C 88.436 168.508,88.735 168.299,89.020 165.637 C 89.786 158.479,87.065 155.493,81.213 157.069 M94.354 157.029 C 91.913 158.106,90.532 166.042,92.433 168.065 C 93.244 168.929,104.045 172.660,105.734 172.660 C 110.286 172.660,110.633 165.001,106.278 160.646 C 103.400 157.767,97.046 155.840,94.354 157.029 M86.504 158.172 C 88.446 160.193,89.005 164.548,87.642 167.038 L 86.924 168.351 81.575 170.187 C 75.383 172.312,74.327 172.441,73.108 171.222 C 70.235 168.349,72.874 161.332,77.707 158.992 C 80.972 157.411,85.378 157.001,86.504 158.172 M100.128 157.963 C 105.708 159.278,109.554 164.357,108.644 169.206 C 108.016 172.557,106.476 172.716,99.108 170.187 L 93.759 168.351 93.091 167.025 C 91.835 164.534,92.352 160.174,94.124 158.325 C 95.066 157.342,96.999 157.225,100.128 157.963 M61.516 159.726 C 61.516 161.808,66.679 169.469,68.326 169.831 C 69.682 170.129,69.936 176.076,68.627 176.901 C 67.608 177.544,64.130 175.020,61.958 172.061 L 60.886 170.600 60.978 164.826 C 61.028 161.650,61.170 159.112,61.293 159.187 C 61.415 159.261,61.516 159.504,61.516 159.726 M119.749 164.865 L 119.775 170.741 118.357 172.500 C 116.715 174.537,114.137 176.729,113.066 176.998 C 111.692 177.343,111.441 176.764,111.441 173.255 L 111.441 170.059 112.282 169.891 C 114.282 169.491,117.462 164.765,119.268 159.510 C 119.651 158.393,119.723 159.195,119.749 164.865 M255.248 161.330 L 255.964 162.407 255.311 164.890 C 254.393 168.378,252.970 171.848,249.569 178.889 C 245.499 187.316,244.106 191.584,243.503 197.474 C 243.248 199.963,243.243 199.951,242.663 195.245 C 240.674 179.125,241.544 174.628,247.948 167.929 C 251.324 164.398,253.407 161.547,253.711 160.042 C 253.870 159.252,253.921 159.218,254.210 159.707 C 254.387 160.007,254.854 160.737,255.248 161.330 M377.545 160.362 C 377.920 161.854,379.802 164.358,383.235 167.931 C 386.869 171.713,387.628 172.926,388.620 176.523 C 389.363 179.218,389.292 189.789,388.492 195.542 L 387.934 199.554 387.563 196.731 C 386.737 190.457,385.900 187.967,381.567 178.900 C 376.938 169.214,374.773 163.123,375.571 162.031 C 375.779 161.748,376.177 161.026,376.457 160.428 C 377.022 159.219,377.255 159.205,377.545 160.362 M257.652 163.017 C 257.652 165.677,259.261 170.081,261.123 172.521 L 262.210 173.943 260.897 176.553 C 259.309 179.710,259.395 179.693,258.095 177.110 C 256.153 173.255,255.363 167.956,256.157 164.116 C 256.570 162.117,257.652 161.322,257.652 163.017 M374.958 163.893 C 375.927 167.450,374.923 173.705,372.696 177.981 L 371.860 179.588 370.391 176.792 L 368.922 173.997 370.049 172.511 C 371.563 170.513,372.880 167.258,373.290 164.498 C 373.697 161.765,374.316 161.540,374.958 163.893 M256.323 174.304 C 256.743 175.617,257.525 177.466,258.062 178.413 L 259.038 180.135 258.010 182.861 C 256.497 186.875,255.080 192.826,254.673 196.880 C 254.412 199.482,253.884 201.972,252.721 206.092 C 251.844 209.198,250.844 213.342,250.498 215.302 C 249.740 219.602,249.390 220.323,247.786 220.891 C 245.950 221.540,245.494 219.086,245.467 208.397 C 245.421 189.977,245.683 188.443,250.665 178.009 C 252.343 174.495,254.032 170.750,254.418 169.688 L 255.121 167.756 255.341 169.837 C 255.462 170.981,255.904 172.991,256.323 174.304 M377.261 171.025 C 377.867 172.496,379.431 175.906,380.737 178.603 C 385.519 188.476,385.544 188.624,385.571 206.984 C 385.588 218.937,385.468 220.150,384.206 220.826 C 382.667 221.649,381.384 219.694,380.668 215.437 C 380.362 213.618,380.051 211.908,379.976 211.637 C 379.901 211.366,379.176 208.804,378.365 205.944 C 377.396 202.523,376.783 199.671,376.574 197.612 C 376.051 192.438,374.790 187.128,372.953 182.356 L 372.072 180.067 372.792 178.926 C 374.234 176.642,375.466 172.972,375.809 169.939 C 375.918 168.973,376.042 168.220,376.084 168.266 C 376.126 168.313,376.656 169.554,377.261 171.025 M41.328 172.957 C 42.032 178.684,41.466 181.942,38.127 191.367 C 35.790 197.961,35.628 198.223,36.319 194.277 C 37.426 187.951,37.322 180.348,36.067 175.934 L 35.604 174.304 38.036 171.962 C 40.864 169.238,40.870 169.240,41.328 172.957 M143.333 172.591 L 145.062 174.352 144.610 176.106 C 143.366 180.927,143.286 187.686,144.396 194.056 C 144.696 195.773,144.912 197.213,144.877 197.257 C 144.842 197.301,144.001 195.153,143.010 192.484 C 139.468 182.954,138.780 179.498,139.336 174.016 C 139.852 168.924,139.763 168.956,143.333 172.591 M266.604 173.825 C 267.200 179.894,266.506 182.972,261.578 196.137 C 257.519 206.979,256.530 210.592,256.451 214.859 C 256.382 218.549,255.044 210.531,254.888 205.498 C 254.515 193.441,258.366 180.061,264.710 171.377 C 266.049 169.545,266.204 169.746,266.604 173.825 M366.924 172.140 C 374.644 183.446,378.211 201.052,375.398 213.967 L 374.848 216.493 374.624 213.819 C 374.248 209.336,373.364 206.172,370.057 197.474 C 364.543 182.970,363.604 178.242,364.821 171.100 C 365.079 169.585,365.232 169.661,366.924 172.140 M81.269 171.886 C 73.414 174.347,71.046 178.679,72.968 187.073 C 73.379 188.871,73.993 191.612,74.331 193.165 C 76.653 203.824,79.798 208.587,85.814 210.555 C 88.561 211.453,88.466 211.876,88.699 197.631 C 88.791 191.996,89.013 185.377,89.193 182.920 C 89.942 172.669,87.890 169.812,81.269 171.886 M94.032 171.759 C 91.292 172.867,91.100 174.317,91.770 188.846 C 91.973 193.253,92.146 199.471,92.153 202.664 C 92.174 210.984,92.317 211.340,95.236 210.355 C 101.520 208.233,103.790 204.433,107.011 190.639 C 109.354 180.605,108.990 177.784,104.961 174.751 C 101.453 172.109,96.512 170.756,94.032 171.759 M86.306 172.981 C 88.530 174.069,89.002 176.919,88.540 186.478 C 88.398 189.421,88.139 195.623,87.964 200.262 C 87.789 204.902,87.512 208.947,87.349 209.252 C 86.175 211.445,80.674 207.833,78.377 203.362 C 74.587 195.983,72.039 181.938,73.806 178.158 C 75.772 173.949,82.550 171.142,86.306 172.981 M100.155 172.970 C 108.349 175.210,109.450 181.084,104.752 197.487 C 102.417 205.636,95.695 212.551,93.463 209.099 C 92.454 207.538,91.866 176.229,92.813 174.494 C 93.918 172.468,96.420 171.949,100.155 172.970 M19.172 175.260 C 19.946 178.760,21.175 182.208,24.055 188.954 C 27.738 197.580,29.301 202.490,30.457 209.064 C 30.893 211.546,31.554 219.632,31.340 219.865 C 31.189 220.029,27.301 214.688,25.092 211.284 C 17.437 199.488,14.555 184.944,17.866 174.814 C 18.619 172.512,18.560 172.492,19.172 175.260 M163.272 176.123 C 166.454 188.402,162.430 202.342,151.301 217.598 C 149.255 220.404,149.291 220.401,149.404 217.756 C 149.784 208.807,151.866 200.068,155.721 191.233 C 159.306 183.018,160.773 178.945,161.695 174.641 C 162.132 172.606,162.434 172.890,163.272 176.123 M289.476 179.352 C 291.065 180.799,295.452 183.971,296.862 184.692 C 298.249 185.402,297.774 185.698,287.370 190.596 C 286.798 190.866,285.625 191.621,284.764 192.274 C 282.854 193.723,283.007 193.728,282.594 192.199 C 280.932 186.057,281.399 182.812,284.827 176.683 L 285.927 174.715 287.046 176.436 C 287.661 177.383,288.755 178.695,289.476 179.352 M347.173 178.351 C 349.656 183.176,350.062 186.585,348.741 191.518 C 348.141 193.756,348.298 193.691,346.612 192.399 C 345.819 191.791,342.764 190.127,339.822 188.700 C 332.498 185.147,332.817 185.691,336.595 183.210 C 340.257 180.805,343.468 177.830,344.411 175.970 C 345.189 174.436,345.133 174.388,347.173 178.351 M62.194 177.010 C 72.178 182.060,74.356 189.551,67.912 196.684 C 65.937 198.870,65.002 198.637,60.225 194.768 C 56.891 192.068,56.628 191.444,56.618 186.181 C 56.612 182.928,56.978 181.809,59.307 177.975 C 60.549 175.930,60.254 176.029,62.194 177.010 M121.198 177.637 C 123.814 181.726,124.688 184.703,124.203 187.871 C 123.503 192.442,123.570 192.322,120.254 194.982 C 115.452 198.835,114.689 198.940,112.305 196.075 C 106.524 189.128,108.621 182.309,118.078 177.301 C 119.195 176.710,120.151 176.226,120.202 176.226 C 120.253 176.226,120.701 176.861,121.198 177.637 M297.481 191.797 C 299.937 193.000,304.308 197.738,308.123 203.333 L 309.078 204.734 307.511 204.004 C 303.944 202.344,299.510 203.479,291.828 208.022 C 290.929 208.553,289.465 209.310,288.574 209.704 C 286.635 210.562,284.993 211.763,284.993 212.324 C 284.993 212.547,284.491 213.036,283.878 213.410 C 283.265 213.784,281.995 214.819,281.055 215.709 L 279.346 217.327 279.349 214.235 C 279.356 208.107,281.728 196.332,283.241 194.919 C 286.984 191.422,293.706 189.949,297.481 191.797 M340.713 191.246 C 342.522 191.717,346.446 193.659,347.848 194.777 C 349.345 195.971,351.548 206.747,351.691 213.581 L 351.767 217.206 349.811 215.414 C 348.736 214.428,347.511 213.419,347.091 213.170 C 346.670 212.922,346.200 212.431,346.046 212.080 C 345.780 211.475,342.417 209.544,334.830 205.639 C 329.949 203.127,326.207 202.625,323.373 204.103 C 321.977 204.830,321.991 204.769,323.750 202.377 C 331.570 191.748,334.716 189.684,340.713 191.246 M245.022 205.869 C 245.022 221.665,245.207 222.791,247.702 222.165 C 249.729 221.656,250.554 219.888,251.415 214.216 C 251.902 211.003,253.718 203.990,253.991 204.263 C 254.057 204.330,254.240 205.966,254.398 207.899 C 255.028 215.631,256.712 221.515,259.341 225.167 C 262.556 229.632,263.201 232.475,262.929 240.978 C 262.722 247.444,262.302 248.258,260.273 246.137 C 259.044 244.851,258.695 243.905,258.105 240.262 C 257.830 238.561,257.452 237.320,257.040 236.762 L 256.401 235.898 257.533 234.740 C 258.886 233.354,258.672 233.260,256.916 234.468 C 254.018 236.462,253.192 237.777,251.230 243.527 C 250.249 246.400,250.232 246.531,250.656 247.836 C 250.897 248.577,251.226 250.024,251.387 251.053 C 251.656 252.768,251.824 253.073,253.403 254.714 C 256.174 257.593,256.821 259.803,255.445 261.685 C 254.648 262.774,248.671 256.677,246.517 252.578 C 244.980 249.652,243.939 235.125,244.008 217.533 C 244.026 212.875,243.947 207.526,243.832 205.646 C 243.628 202.290,243.906 198.406,244.636 194.428 C 244.823 193.406,244.987 192.571,244.999 192.571 C 245.012 192.570,245.022 198.555,245.022 205.869 M386.788 196.120 C 387.364 199.746,387.387 201.140,387.163 218.871 C 387.003 231.579,386.744 237.781,386.010 246.508 C 385.530 252.202,384.177 254.695,378.794 259.796 C 375.995 262.448,376.034 262.433,375.468 261.079 C 374.561 258.909,375.023 257.632,377.772 254.709 C 379.016 253.386,379.512 252.610,379.639 251.788 C 379.735 251.172,380.057 249.691,380.355 248.496 L 380.897 246.323 379.912 243.388 C 378.126 238.063,376.337 235.445,373.511 234.018 L 372.511 233.513 373.698 234.748 C 374.447 235.528,374.765 236.060,374.559 236.193 C 373.892 236.626,373.430 237.977,372.930 240.955 C 372.004 246.475,369.195 249.188,368.460 245.271 C 367.246 238.804,368.488 229.686,371.043 226.300 C 374.520 221.694,376.820 213.441,376.820 205.575 C 376.820 204.444,376.926 203.852,377.096 204.027 C 377.669 204.613,379.184 210.508,379.778 214.463 C 380.875 221.767,384.354 225.165,385.763 220.310 C 386.226 218.716,386.389 195.456,385.952 193.471 C 385.806 192.811,385.827 192.544,386.010 192.728 C 386.167 192.887,386.518 194.413,386.788 196.120 M64.717 198.967 C 65.866 199.646,67.228 201.939,71.775 210.847 C 73.860 214.933,76.080 219.164,76.707 220.248 C 77.333 221.332,78.580 223.860,79.476 225.865 C 82.187 231.932,84.198 234.269,87.426 235.106 L 88.820 235.467 89.024 237.377 C 89.443 241.287,88.984 246.772,87.825 251.709 C 86.548 257.150,84.569 265.923,84.238 267.608 C 84.043 268.605,83.941 268.127,83.608 264.641 C 82.612 254.224,81.041 248.004,77.111 238.930 C 74.057 231.881,72.851 227.519,70.733 215.865 C 69.123 207.012,68.861 206.247,66.052 202.221 C 61.033 195.027,59.381 205.970,63.045 222.140 C 64.888 230.270,67.726 238.322,72.526 249.032 L 74.932 254.399 74.272 256.397 C 73.414 258.994,72.043 262.074,68.422 269.539 C 64.092 278.466,62.296 283.408,61.916 287.443 C 61.703 289.706,61.383 290.126,59.975 289.991 L 58.990 289.896 58.789 287.868 C 58.405 283.982,57.604 280.924,54.657 272.085 C 50.011 258.154,48.986 251.177,49.938 239.970 C 50.528 233.024,51.009 231.302,52.637 230.312 C 59.124 226.368,62.769 204.861,58.122 197.955 C 57.123 196.471,57.043 195.322,57.845 193.990 C 57.917 193.872,59.296 194.828,60.911 196.114 C 62.527 197.401,64.239 198.685,64.717 198.967 M123.298 195.097 C 123.620 196.379,123.593 196.496,122.640 197.881 C 119.879 201.895,119.819 209.530,122.460 220.790 C 123.516 225.293,125.752 228.956,128.400 230.520 C 130.104 231.526,130.857 236.150,130.885 245.765 C 130.916 256.284,130.297 259.730,126.269 271.449 C 123.630 279.130,122.498 283.320,122.008 287.221 L 121.672 289.896 120.494 289.896 C 119.385 289.896,119.305 289.836,119.116 288.856 C 117.619 281.102,116.863 278.998,111.746 268.351 C 109.664 264.019,107.605 259.531,107.170 258.376 C 105.621 254.262,105.558 254.893,108.059 249.374 C 112.560 239.439,115.438 231.464,117.244 223.923 C 121.646 205.545,120.002 194.386,114.168 203.048 C 111.553 206.929,111.514 207.055,109.819 217.033 C 108.097 227.166,107.048 230.720,102.730 241.054 C 99.621 248.492,97.942 255.589,97.159 264.586 C 96.987 266.575,96.810 268.331,96.767 268.488 C 96.724 268.646,96.453 267.576,96.166 266.111 C 95.878 264.646,94.928 260.371,94.056 256.612 C 91.485 245.539,91.088 242.209,91.715 236.990 L 91.895 235.496 93.683 234.969 C 96.590 234.112,98.361 232.084,100.732 226.895 C 101.778 224.606,103.143 221.798,103.767 220.654 C 104.390 219.510,106.187 216.100,107.759 213.076 C 113.474 202.086,114.532 200.239,115.571 199.440 C 116.126 199.012,117.931 197.572,119.583 196.238 C 123.156 193.354,122.880 193.438,123.298 195.097 M58.856 200.743 C 61.365 208.021,57.754 225.661,53.015 229.275 C 51.599 230.356,51.594 230.322,52.579 226.279 C 53.905 220.836,54.104 219.387,54.219 214.339 C 54.332 209.356,54.817 205.714,56.067 200.461 L 56.841 197.207 57.541 198.083 C 57.926 198.565,58.518 199.762,58.856 200.743 M124.905 201.486 C 126.056 206.716,126.322 208.872,126.598 215.156 C 126.821 220.240,126.982 221.496,127.913 225.397 C 129.123 230.466,129.042 230.015,128.749 230.015 C 128.206 230.015,125.898 227.396,124.977 225.736 C 121.603 219.653,119.990 204.943,122.159 200.033 C 123.717 196.507,123.823 196.563,124.905 201.486 M21.850 206.752 C 24.091 211.010,26.226 214.292,30.025 219.316 C 31.446 221.196,32.772 223.048,32.973 223.433 C 33.173 223.817,33.990 225.026,34.788 226.120 C 37.460 229.782,38.715 238.696,37.483 245.271 C 36.744 249.219,34.043 246.568,33.031 240.900 C 31.688 233.379,28.882 234.458,25.867 243.655 C 25.196 245.701,25.058 246.568,25.175 248.001 C 25.256 248.985,25.180 250.950,25.007 252.367 C 24.719 254.721,24.753 255.189,25.408 257.771 C 26.964 263.904,26.956 267.439,25.385 267.962 C 24.510 268.254,20.818 256.232,20.373 251.639 C 19.305 240.614,18.727 227.721,18.766 215.750 C 18.787 209.116,18.666 205.584,18.313 202.572 C 17.674 197.122,17.697 197.024,18.855 200.214 C 19.403 201.721,20.750 204.663,21.850 206.752 M162.596 201.098 C 162.042 206.078,161.945 208.673,161.826 221.694 C 161.713 233.901,161.251 243.313,160.335 252.020 C 159.899 256.167,159.947 256.001,156.108 266.806 C 155.672 268.035,155.632 268.065,155.092 267.576 C 153.746 266.359,153.845 263.549,155.456 257.232 C 155.997 255.110,156.021 254.617,155.707 252.200 C 155.516 250.726,155.445 248.762,155.550 247.835 C 155.867 245.029,152.715 236.948,150.953 236.052 C 149.529 235.328,148.398 236.706,147.932 239.732 C 147.257 244.120,145.686 247.251,144.158 247.251 C 142.613 247.251,142.535 233.151,144.058 229.323 C 144.629 227.888,146.683 224.834,150.942 219.084 C 156.400 211.717,160.036 205.469,161.856 200.329 C 162.905 197.368,162.999 197.465,162.596 201.098 M65.220 202.615 C 67.381 205.589,68.635 208.553,69.269 212.184 C 71.466 224.769,74.029 233.785,78.008 242.937 C 81.799 251.655,84.234 266.539,83.114 274.146 C 82.849 275.944,82.544 278.418,82.435 279.643 C 82.140 282.988,81.835 283.028,81.599 279.752 C 81.291 275.452,79.825 267.249,78.606 262.997 C 77.550 259.314,76.617 256.907,71.924 245.765 C 64.845 228.959,62.007 217.883,61.976 206.942 C 61.956 200.070,62.675 199.111,65.220 202.615 M118.600 202.006 C 119.041 203.337,119.016 209.122,118.553 212.779 C 117.158 223.812,114.211 233.297,106.826 250.533 C 101.986 261.829,100.298 268.164,99.149 279.346 L 98.767 283.061 98.545 281.129 C 98.423 280.067,98.057 277.325,97.731 275.037 C 97.097 270.585,97.126 268.953,97.959 262.259 C 99.102 253.070,100.267 248.552,103.281 241.622 C 106.757 233.629,109.489 223.800,111.434 212.290 C 111.784 210.221,112.293 208.381,112.791 207.387 C 115.913 201.155,117.753 199.451,118.600 202.006 M307.960 204.652 C 311.998 206.689,314.730 215.399,314.700 226.144 C 314.671 236.548,312.359 239.549,301.634 243.103 C 299.755 243.726,295.810 245.057,292.868 246.060 C 282.272 249.673,281.297 247.938,286.026 233.885 C 288.972 225.131,289.000 221.657,286.180 214.986 C 285.333 212.983,286.762 211.142,290.584 209.310 C 291.840 208.708,294.004 207.601,295.394 206.849 C 301.647 203.466,304.589 202.952,307.960 204.652 M330.184 204.297 C 332.253 204.897,342.754 210.335,343.939 211.421 C 345.408 212.767,345.550 213.631,344.637 215.688 C 342.103 221.401,342.279 225.594,345.447 234.978 C 349.348 246.533,348.427 249.337,341.456 247.131 C 318.042 239.725,316.538 238.444,316.473 225.854 C 316.414 214.609,319.467 205.919,324.071 204.225 C 326.014 203.510,327.530 203.528,330.184 204.297 M285.528 215.082 C 285.852 216.022,286.462 217.727,286.885 218.871 C 288.357 222.849,287.903 226.717,284.975 235.177 C 284.005 237.977,282.960 241.404,282.652 242.793 C 282.344 244.183,281.539 246.755,280.862 248.510 C 277.851 256.320,275.795 265.410,273.554 280.813 C 273.140 283.661,272.756 286.036,272.700 286.091 C 272.645 286.147,272.516 285.086,272.413 283.735 C 270.764 262.045,271.511 252.123,276.270 232.541 C 277.342 228.128,278.493 223.113,278.826 221.397 C 279.499 217.931,279.840 217.372,282.869 214.785 C 284.918 213.034,284.820 213.023,285.528 215.082 M349.659 216.170 C 351.754 218.254,351.780 218.299,352.121 220.455 C 352.310 221.653,353.267 225.865,354.248 229.816 C 359.297 250.161,360.309 260.803,359.023 280.007 C 358.597 286.356,358.326 287.382,357.994 283.888 C 356.869 272.045,353.502 257.013,349.738 247.025 C 349.106 245.349,348.588 243.620,348.588 243.184 C 348.588 242.748,347.647 239.615,346.496 236.220 C 343.333 226.889,342.805 223.091,344.157 219.383 C 344.498 218.448,345.118 216.717,345.534 215.539 C 346.442 212.969,346.441 212.969,349.659 216.170 M314.396 241.349 C 314.415 245.260,314.151 246.868,311.886 256.612 C 309.064 268.747,307.685 276.869,307.114 284.695 C 306.820 288.737,306.693 288.625,305.580 283.343 C 302.058 266.620,301.463 256.867,303.425 247.994 C 304.542 242.941,304.631 242.783,307.033 241.625 C 309.663 240.356,311.800 238.688,313.026 236.946 L 313.967 235.610 314.173 236.750 C 314.286 237.377,314.387 239.447,314.396 241.349 M320.550 239.498 C 321.179 240.024,322.718 240.947,323.971 241.549 L 326.248 242.645 326.860 244.725 C 329.127 252.425,329.448 260.204,327.929 270.630 C 327.353 274.584,324.803 287.435,324.533 287.742 C 324.425 287.865,324.169 286.060,323.963 283.731 C 323.236 275.493,321.905 267.838,319.168 256.166 C 316.802 246.072,316.250 241.196,316.978 236.794 L 317.159 235.699 318.283 237.120 C 318.901 237.902,319.921 238.972,320.550 239.498 M132.962 248.291 C 134.970 261.099,134.823 272.366,132.341 295.840 C 131.506 303.729,131.475 303.827,129.880 303.548 C 125.322 302.750,122.449 297.762,122.443 290.639 C 122.440 285.732,122.973 283.434,126.194 274.481 C 130.325 263.000,131.459 256.957,131.485 246.272 C 131.503 239.272,131.560 239.350,132.962 248.291 M49.254 243.314 C 48.703 253.404,50.257 262.423,54.693 274.889 C 60.301 290.647,59.241 300.981,51.774 303.334 C 49.276 304.122,49.288 304.143,48.547 297.442 C 45.671 271.399,45.686 259.130,48.615 243.119 C 49.253 239.634,49.452 239.695,49.254 243.314 M336.701 247.996 C 335.936 257.169,338.505 276.931,342.060 289.217 C 344.228 296.711,343.686 300.457,338.711 312.333 C 336.153 318.440,335.368 320.603,334.614 323.626 C 334.267 325.015,333.874 326.264,333.740 326.402 C 333.351 326.802,330.269 320.993,329.823 319.019 C 329.190 316.217,329.294 303.673,330.006 296.880 C 331.082 286.609,330.669 278.032,328.850 272.875 C 328.470 271.800,328.473 271.206,328.872 267.995 C 329.955 259.278,329.174 248.780,327.035 243.315 C 326.871 242.897,327.805 243.128,331.841 244.505 L 336.850 246.214 336.701 247.996 M303.886 243.759 C 301.663 251.364,301.199 258.918,302.367 268.461 C 302.698 271.164,302.698 271.848,302.362 272.651 C 300.462 277.198,300.100 284.878,301.187 297.623 C 302.641 314.691,301.957 320.630,297.902 326.130 C 297.360 326.865,297.415 326.974,296.479 323.328 C 296.038 321.612,294.797 318.068,293.721 315.453 C 289.961 306.317,289.386 304.787,288.704 302.096 C 287.365 296.820,287.400 295.300,288.990 289.636 C 292.768 276.170,295.497 254.629,294.341 247.387 L 294.154 246.211 298.711 244.676 C 304.055 242.876,304.149 242.860,303.886 243.759 M283.620 247.998 C 284.782 248.760,287.153 248.602,290.455 247.545 C 294.152 246.360,293.999 246.176,293.981 251.767 C 293.939 265.271,290.599 284.498,286.121 297.026 C 285.477 298.825,284.843 300.632,284.711 301.040 C 284.113 302.891,275.898 322.086,275.554 322.437 C 275.474 322.519,275.499 320.646,275.610 318.276 C 275.732 315.650,275.687 313.108,275.493 311.766 C 273.103 295.228,272.835 289.989,273.975 282.021 C 276.034 267.621,277.778 259.421,280.499 251.341 C 282.206 246.273,282.328 246.020,282.648 246.886 C 282.776 247.231,283.213 247.732,283.620 247.998 M350.639 251.214 C 353.250 258.786,355.676 270.551,357.537 284.662 L 358.218 289.830 357.397 297.441 C 356.946 301.627,356.350 306.657,356.074 308.618 C 355.725 311.098,355.593 313.760,355.642 317.356 C 355.681 320.201,355.662 322.474,355.600 322.408 C 355.411 322.209,350.272 310.399,348.353 305.757 C 341.264 288.609,336.086 262.545,337.152 249.385 C 337.394 246.398,337.361 246.415,340.699 247.543 C 345.032 249.008,348.539 248.587,348.600 246.596 C 348.622 245.879,349.432 247.712,350.639 251.214 M30.848 259.067 L 30.758 260.475 30.312 259.677 C 30.067 259.237,29.030 257.432,28.009 255.666 C 26.348 252.794,26.152 252.283,26.152 250.827 L 26.152 249.200 28.545 253.429 C 30.733 257.296,30.931 257.779,30.848 259.067 M152.583 255.918 C 151.367 258.010,150.371 259.867,150.371 260.042 C 150.371 260.218,150.238 260.279,150.074 260.178 C 149.198 259.637,149.783 257.483,151.669 254.313 C 152.709 252.564,153.743 250.694,153.966 250.158 L 154.372 249.183 154.584 250.648 C 154.790 252.079,154.745 252.200,152.583 255.918 M251.427 260.153 C 254.475 263.098,254.699 263.391,254.458 264.115 C 254.021 265.427,253.695 265.228,250.191 261.507 C 246.580 257.672,246.241 257.144,245.906 254.829 L 245.690 253.343 246.913 255.158 C 247.585 256.156,249.616 258.404,251.427 260.153 M385.151 255.365 C 384.794 257.558,384.960 257.319,380.858 261.530 C 377.602 264.872,377.286 265.120,376.920 264.620 C 376.242 263.693,376.421 263.425,380.206 259.670 C 382.293 257.601,384.170 255.458,384.536 254.726 C 385.353 253.093,385.496 253.242,385.151 255.365 M29.712 261.748 C 29.729 265.558,27.970 265.846,27.344 262.135 C 27.159 261.033,26.703 258.938,26.332 257.479 C 25.365 253.680,25.662 253.637,27.810 257.268 C 29.338 259.852,29.708 260.723,29.712 261.748 M155.044 254.755 C 154.961 255.123,154.544 256.920,154.118 258.749 C 153.692 260.578,153.343 262.409,153.343 262.819 C 153.343 263.228,153.019 263.938,152.623 264.397 L 151.903 265.230 151.546 264.339 C 150.848 262.594,150.873 260.870,151.616 259.578 C 151.994 258.921,152.838 257.418,153.492 256.240 C 154.674 254.108,155.334 253.477,155.044 254.755 M77.748 261.769 C 80.921 271.410,82.023 283.672,80.863 296.434 C 80.522 300.193,80.154 304.265,80.045 305.483 C 79.216 314.785,65.161 307.599,62.850 296.693 C 61.291 289.334,63.020 282.328,69.925 268.025 C 71.471 264.822,73.319 260.695,74.032 258.853 L 75.328 255.505 76.032 257.099 C 76.419 257.975,77.191 260.077,77.748 261.769 M106.533 258.395 C 106.992 259.703,108.888 263.953,110.747 267.839 C 117.825 282.635,119.577 289.922,117.797 297.158 C 115.798 305.284,107.173 311.803,102.249 308.910 C 100.893 308.114,100.877 308.030,99.969 297.474 C 98.585 281.378,99.846 269.801,104.235 258.306 C 105.431 255.176,105.403 255.175,106.533 258.395 M252.006 265.055 C 252.006 265.642,250.822 268.053,250.534 268.053 C 250.354 268.053,248.678 263.785,247.616 260.624 C 247.533 260.379,248.488 261.178,249.736 262.400 C 250.984 263.621,252.006 264.816,252.006 265.055 M382.256 264.205 C 380.611 268.616,380.777 268.368,380.075 267.455 C 378.722 265.694,378.910 264.940,381.298 262.536 C 383.975 259.840,383.920 259.744,382.256 264.205 M306.185 292.125 C 306.185 299.617,304.792 310.904,303.364 314.984 C 302.482 317.503,301.638 319.048,302.134 317.236 C 302.558 315.686,302.356 303.860,301.822 298.960 C 300.611 287.849,300.961 277.931,302.725 273.403 C 303.198 272.188,306.184 288.347,306.185 292.125 M328.975 275.486 C 330.333 280.765,330.458 287.975,329.370 298.217 C 329.046 301.267,328.857 305.595,328.845 310.285 L 328.826 317.599 328.141 315.932 C 326.673 312.361,326.401 310.523,324.831 293.567 C 324.583 290.893,324.632 290.391,325.546 286.137 C 326.086 283.628,326.898 279.667,327.350 277.335 C 327.802 275.004,328.229 273.153,328.299 273.222 C 328.369 273.292,328.673 274.311,328.975 275.486 M61.652 292.645 C 62.842 304.237,71.034 312.567,78.270 309.544 C 78.902 309.280,79.457 309.064,79.503 309.064 C 80.289 309.064,78.072 315.818,75.699 320.654 C 73.191 325.765,72.557 326.751,69.399 330.461 C 59.803 341.732,58.262 348.723,58.626 379.321 C 58.797 393.715,59.200 395.915,62.253 399.108 C 64.118 401.060,64.661 404.426,63.490 406.771 C 62.380 408.991,62.347 409.502,63.192 411.302 C 65.945 417.158,65.740 419.515,62.089 424.015 C 60.729 425.692,60.528 425.837,60.196 425.383 C 59.885 424.958,59.817 425.234,59.776 427.073 C 59.682 431.318,58.702 433.823,55.931 436.896 C 55.143 437.769,54.184 438.952,53.799 439.525 C 51.218 443.366,47.860 444.652,45.732 442.613 C 44.170 441.116,44.534 439.532,47.671 434.179 C 49.037 431.849,48.920 431.660,47.355 433.667 C 45.819 435.638,44.435 438.121,43.951 439.779 C 43.225 442.260,39.869 442.957,39.422 440.719 C 39.221 439.713,39.910 438.087,41.779 435.159 C 43.010 433.230,44.062 431.184,43.903 431.026 C 43.643 430.766,40.270 435.639,39.237 437.767 C 38.265 439.770,38.072 439.996,37.516 439.790 C 35.999 439.229,36.203 437.516,38.126 434.654 C 39.576 432.496,41.036 429.660,40.627 429.796 C 40.191 429.941,37.061 434.444,36.085 436.330 C 35.683 437.106,35.232 437.741,35.083 437.741 C 34.579 437.741,33.878 436.811,33.878 436.143 C 33.878 435.533,37.684 429.675,38.346 429.266 C 38.504 429.168,38.633 428.958,38.633 428.800 C 38.633 428.641,38.214 428.816,37.702 429.189 C 36.669 429.941,33.284 434.378,33.284 434.981 C 33.284 435.461,32.917 435.473,32.452 435.007 C 31.852 434.407,32.048 433.494,33.120 431.903 C 33.683 431.066,34.704 429.129,35.388 427.598 C 37.059 423.857,39.582 419.380,42.650 414.710 C 46.054 409.529,46.345 408.884,46.353 406.508 C 46.359 404.857,46.519 404.247,47.371 402.642 C 47.927 401.594,48.613 399.935,48.895 398.957 C 49.177 397.978,49.642 396.842,49.927 396.434 C 53.288 391.614,54.419 385.138,54.383 370.915 C 54.373 366.889,54.374 357.043,54.387 349.034 L 54.410 334.473 54.998 335.587 C 56.395 338.233,55.893 336.484,54.396 333.491 C 51.080 326.858,50.123 323.167,50.377 317.979 C 50.560 314.252,50.334 311.175,49.458 305.466 L 49.294 304.395 50.651 304.209 C 55.335 303.567,58.744 298.737,58.917 292.495 L 58.968 290.639 60.207 290.639 L 61.446 290.639 61.652 292.645 M121.842 292.508 C 121.842 298.394,125.445 303.580,129.965 304.200 C 130.728 304.304,131.352 304.472,131.352 304.572 C 131.352 304.673,131.079 306.828,130.746 309.361 C 130.262 313.042,130.180 314.783,130.337 318.024 C 130.601 323.465,129.971 325.821,126.003 334.234 C 124.517 337.384,124.233 338.390,125.538 335.884 L 126.272 334.473 126.292 340.862 C 126.335 355.526,126.609 381.006,126.747 383.266 C 127.062 388.434,128.989 394.388,131.201 397.028 C 131.406 397.273,131.666 398.009,131.778 398.663 C 131.891 399.316,132.489 400.854,133.108 402.080 C 134.052 403.951,134.260 404.705,134.400 406.770 L 134.566 409.232 136.925 412.863 C 141.715 420.233,143.559 423.490,145.795 428.529 C 146.267 429.591,147.095 431.119,147.635 431.924 C 148.327 432.954,148.592 433.659,148.529 434.302 C 148.394 435.681,147.913 435.422,146.362 433.135 C 144.711 430.700,144.010 429.892,142.793 429.022 C 142.039 428.483,142.174 428.773,143.670 430.908 C 146.640 435.149,146.805 435.424,146.805 436.127 C 146.805 437.775,145.462 438.155,144.846 436.681 C 144.602 436.098,143.658 434.527,142.747 433.189 C 139.821 428.892,138.995 428.511,141.357 432.548 C 144.505 437.929,144.749 438.567,143.961 439.355 C 143.185 440.131,142.428 439.926,142.071 438.843 C 141.757 437.893,138.857 433.300,137.622 431.798 C 136.486 430.415,136.943 431.884,138.367 434.189 C 141.609 439.438,142.081 441.269,140.363 441.922 C 139.428 442.278,136.999 441.295,136.999 440.562 C 136.999 439.601,135.676 436.948,134.063 434.674 C 131.686 431.322,131.687 431.559,134.073 436.182 C 136.397 440.688,136.490 441.300,135.053 442.632 C 132.875 444.650,129.063 443.197,126.972 439.549 C 126.543 438.800,125.758 437.818,125.228 437.367 C 122.526 435.065,120.986 431.198,120.916 426.539 C 120.898 425.263,120.818 424.487,120.739 424.814 C 120.470 425.931,120.164 425.868,118.987 424.450 C 115.245 419.943,114.797 417.412,116.921 412.779 C 118.292 409.788,118.332 409.040,117.247 406.707 C 116.083 404.205,116.544 401.290,118.433 399.208 C 121.597 395.721,121.926 393.891,122.066 379.029 C 122.363 347.575,120.953 341.545,110.457 329.398 C 106.949 325.339,102.612 316.516,101.488 311.149 C 101.006 308.851,100.957 308.936,102.405 309.540 C 109.560 312.530,118.035 304.040,119.048 292.869 L 119.250 290.639 120.546 290.639 L 121.842 290.639 121.842 292.508 M288.698 303.863 C 289.375 306.180,290.539 309.223,293.826 317.265 L 294.566 319.078 292.880 321.872 C 291.094 324.831,289.001 329.036,288.683 330.302 C 288.328 331.718,288.051 331.340,287.867 329.189 C 287.414 323.878,285.392 318.809,281.829 314.053 L 280.557 312.356 281.296 310.686 C 281.702 309.767,282.505 307.789,283.081 306.291 C 283.656 304.792,284.430 302.831,284.801 301.932 C 285.172 301.033,285.868 299.124,286.347 297.691 L 287.218 295.084 287.567 298.137 C 287.759 299.815,288.268 302.392,288.698 303.863 M348.423 307.132 C 350.707 312.668,350.670 312.285,349.114 314.321 C 345.736 318.741,343.554 324.585,343.143 330.312 L 343.058 331.501 342.660 330.495 C 341.801 328.325,339.295 323.456,338.032 321.503 C 336.380 318.949,336.313 319.615,338.812 313.654 C 342.135 305.727,343.803 299.969,343.843 296.285 C 343.852 295.473,344.167 296.093,345.280 299.108 C 346.065 301.233,347.479 304.844,348.423 307.132 M281.730 314.901 C 286.664 321.436,288.481 329.696,286.517 336.662 C 284.673 343.205,283.944 349.171,283.615 360.414 L 283.412 367.337 282.494 367.993 C 281.170 368.937,278.386 368.917,277.036 367.954 C 275.537 366.884,275.016 365.494,274.344 360.773 C 273.061 351.749,272.957 350.282,272.967 341.308 L 272.978 332.392 275.538 325.260 C 276.946 321.337,278.389 317.459,278.746 316.642 C 279.103 315.825,279.577 314.721,279.801 314.190 C 280.319 312.959,280.242 312.931,281.730 314.901 M352.393 316.671 C 353.067 318.322,354.367 321.799,355.281 324.398 C 356.195 326.997,357.138 329.632,357.376 330.254 C 358.347 332.788,358.703 342.625,358.089 349.926 C 357.522 356.662,356.261 364.920,355.598 366.230 C 354.365 368.667,350.895 369.548,348.696 367.981 L 347.817 367.356 347.463 358.641 C 346.998 347.201,346.265 341.887,344.229 335.215 C 342.608 329.900,344.848 321.129,349.411 314.931 C 350.931 312.866,350.809 312.795,352.393 316.671 M69.924 319.473 C 65.687 322.725,59.447 326.597,58.443 326.597 C 57.830 326.597,55.857 324.344,53.916 321.428 C 52.417 319.176,51.709 318.419,51.709 319.069 C 51.709 320.097,55.945 326.244,57.237 327.090 C 58.945 328.210,66.307 323.938,70.863 319.182 C 72.021 317.973,71.782 318.047,69.924 319.473 M110.401 319.613 C 114.291 323.275,120.604 327.489,122.201 327.489 C 123.685 327.489,126.224 324.627,128.191 320.738 C 129.696 317.761,128.985 318.221,126.592 321.772 C 124.626 324.690,122.880 326.597,122.177 326.597 C 121.356 326.597,117.981 324.548,112.547 320.750 C 111.694 320.154,110.527 319.339,109.955 318.940 C 109.181 318.399,109.295 318.571,110.401 319.613 M295.367 321.001 C 295.547 321.519,295.904 323.351,296.160 325.072 C 296.415 326.793,297.218 330.214,297.944 332.674 C 302.514 348.160,302.492 348.544,296.152 363.577 C 294.631 367.183,293.149 370.775,292.858 371.560 C 291.600 374.957,287.571 375.702,285.031 373.009 L 284.014 371.931 284.219 362.434 C 284.649 342.506,286.678 333.420,293.101 322.665 C 294.846 319.743,294.911 319.695,295.367 321.001 M339.056 324.362 C 344.568 334.335,346.328 342.537,346.821 360.548 C 347.175 373.509,347.169 373.540,343.759 374.462 C 341.127 375.173,339.183 373.885,337.909 370.583 C 337.409 369.285,335.992 365.860,334.761 362.971 C 328.827 349.048,328.733 347.868,332.535 335.084 C 333.510 331.806,334.516 327.786,334.771 326.152 C 335.026 324.517,335.447 322.448,335.706 321.555 L 336.178 319.930 336.876 320.805 C 337.260 321.286,338.241 322.887,339.056 324.362 M50.359 325.926 C 50.470 326.377,51.287 328.249,52.175 330.087 L 53.789 333.428 53.787 357.130 C 53.784 384.958,53.582 387.665,51.115 393.016 C 49.577 396.351,49.485 396.298,49.440 392.051 C 49.393 387.647,48.988 384.069,46.793 368.648 C 43.223 343.567,43.271 342.223,48.219 328.915 C 49.753 324.792,49.996 324.452,50.359 325.926 M131.919 327.269 C 137.528 341.400,137.605 343.213,133.736 370.134 C 131.831 383.385,131.300 388.123,131.247 392.318 C 131.223 394.222,131.124 395.731,131.027 395.672 C 130.506 395.355,128.850 391.321,128.219 388.836 C 127.083 384.356,126.954 381.154,126.919 356.540 L 126.887 333.437 128.332 330.537 C 129.127 328.942,130.018 326.999,130.311 326.219 C 130.604 325.439,130.880 324.837,130.923 324.882 C 130.967 324.926,131.415 326.001,131.919 327.269 M74.144 326.932 C 77.483 346.443,77.161 349.694,70.503 363.752 C 69.534 365.800,68.441 368.375,68.075 369.475 L 67.409 371.475 66.476 370.953 C 61.889 368.387,59.797 362.921,60.330 354.897 C 61.040 344.217,62.246 341.202,69.285 332.513 C 70.663 330.812,72.253 328.665,72.819 327.742 C 73.940 325.913,73.967 325.897,74.144 326.932 M108.280 328.319 C 109.019 329.430,110.777 331.737,112.187 333.446 C 118.212 340.747,119.751 344.734,120.382 354.673 C 120.907 362.944,119.336 367.460,114.896 370.451 L 113.378 371.473 112.740 369.614 C 112.121 367.813,111.633 366.693,109.144 361.367 C 103.918 350.183,103.417 344.523,106.273 328.900 C 106.841 325.794,106.640 325.852,108.280 328.319 M360.552 340.416 C 362.036 347.422,361.473 356.297,358.514 372.511 C 355.902 386.827,355.482 393.768,356.896 399.232 C 357.658 402.176,357.577 402.245,356.073 399.935 C 352.072 393.789,352.071 393.787,355.717 371.174 C 358.558 353.555,359.127 347.935,358.937 339.383 L 358.814 333.878 359.368 335.661 C 359.673 336.642,360.206 338.782,360.552 340.416 M272.387 342.423 C 272.415 351.706,272.689 354.324,275.336 370.579 C 279.140 393.938,279.144 393.587,274.954 400.098 C 273.389 402.530,273.237 402.512,274.026 399.987 C 275.714 394.583,275.356 387.498,272.645 372.643 C 269.197 353.750,268.947 344.930,271.615 336.330 C 271.958 335.227,272.266 334.324,272.300 334.325 C 272.334 334.325,272.374 337.969,272.387 342.423 M61.242 365.742 C 62.145 367.756,64.247 370.210,65.942 371.228 C 66.531 371.582,67.064 371.910,67.125 371.956 C 67.224 372.031,65.562 379.231,65.179 380.386 C 64.755 381.668,61.629 376.713,60.782 373.415 C 59.945 370.158,59.361 361.451,60.093 363.150 C 60.269 363.559,60.786 364.725,61.242 365.742 M120.856 366.247 C 120.531 372.643,119.328 376.698,116.942 379.435 C 116.329 380.137,115.772 380.656,115.703 380.587 C 115.613 380.497,113.555 372.539,113.525 372.166 C 113.523 372.139,114.375 371.509,115.417 370.765 C 117.581 369.221,119.236 366.957,120.143 364.301 C 120.983 361.841,121.067 362.071,120.856 366.247 M278.650 369.271 C 280.072 369.537,281.566 369.246,282.618 368.497 L 283.507 367.864 283.541 373.457 C 283.559 376.532,283.670 380.788,283.787 382.912 C 283.987 386.528,284.004 386.330,284.051 379.810 L 284.101 372.845 284.742 373.532 C 286.341 375.250,289.372 375.739,291.159 374.570 C 291.966 374.041,291.961 373.947,291.246 376.269 C 290.926 377.308,290.338 379.361,289.939 380.832 C 289.541 382.303,288.862 384.708,288.430 386.177 C 285.814 395.082,286.054 402.471,289.352 414.513 C 293.757 430.606,292.008 435.078,281.312 435.064 C 277.404 435.058,276.895 434.886,272.841 432.195 C 269.745 430.141,268.545 429.534,265.878 428.673 C 259.212 426.521,257.355 425.263,257.355 422.896 C 257.355 422.485,257.008 422.151,256.251 421.835 C 254.467 421.089,254.143 419.827,255.410 418.560 C 256.355 417.615,257.756 417.489,256.909 418.425 C 255.435 420.054,258.473 418.124,261.961 415.215 C 263.432 413.988,265.371 412.523,266.270 411.959 C 267.169 411.395,268.473 410.538,269.168 410.054 L 270.432 409.175 271.216 410.984 C 272.155 413.150,272.433 413.143,271.788 410.971 C 270.695 407.289,271.033 406.158,274.634 401.450 C 276.328 399.233,278.158 395.940,278.158 395.105 C 278.158 394.855,278.276 394.651,278.422 394.651 C 279.320 394.651,278.603 409.212,277.427 414.859 C 276.678 418.454,276.679 418.577,277.437 416.345 C 279.106 411.427,279.793 398.371,278.797 390.490 C 278.581 388.774,278.208 385.832,277.969 383.952 C 277.730 382.073,277.073 377.771,276.509 374.393 C 275.944 371.016,275.483 368.111,275.483 367.939 C 275.483 367.767,275.964 367.952,276.553 368.352 C 277.141 368.751,278.085 369.165,278.650 369.271 M354.680 374.109 C 351.448 393.458,351.025 406.961,353.383 415.453 C 353.970 417.569,354.808 419.541,354.392 417.831 C 353.021 412.185,352.452 406.875,352.452 399.718 C 352.452 394.429,352.566 394.057,353.451 396.465 C 354.036 398.058,356.243 401.474,357.654 402.972 C 359.851 405.303,360.324 407.386,359.435 410.799 C 359.190 411.740,358.996 412.604,359.003 412.719 C 359.030 413.140,360.449 410.236,360.462 409.733 C 360.469 409.447,360.524 409.212,360.583 409.212 C 360.966 409.212,367.611 413.890,369.692 415.624 C 372.976 418.361,375.781 420.068,374.294 418.425 C 373.704 417.773,373.991 417.674,375.172 418.122 C 377.003 418.819,376.857 421.107,374.935 421.841 C 373.872 422.247,373.664 422.449,373.766 422.980 C 374.129 424.881,371.990 426.379,366.017 428.406 C 362.443 429.618,361.351 430.151,358.375 432.133 C 354.219 434.901,353.244 435.196,348.950 434.988 C 338.919 434.500,337.450 430.138,341.925 414.116 C 345.141 402.599,345.346 394.526,342.640 385.884 C 342.179 384.413,341.463 381.872,341.048 380.238 C 340.634 378.603,340.087 376.677,339.832 375.957 C 339.265 374.351,339.250 374.366,340.864 374.923 C 342.824 375.598,345.072 375.022,346.518 373.474 L 347.140 372.808 346.997 377.712 C 346.918 380.409,346.958 383.551,347.085 384.695 C 347.280 386.459,347.331 385.984,347.415 381.575 C 347.470 378.715,347.544 376.040,347.579 375.632 C 347.614 375.223,347.655 373.313,347.670 371.388 L 347.697 367.887 348.534 368.506 C 350.268 369.788,354.341 369.416,355.284 367.889 C 355.773 367.100,355.664 368.213,354.680 374.109 M60.527 374.591 C 61.225 376.772,61.945 378.080,63.487 379.974 L 64.864 381.664 64.089 385.706 C 62.976 391.508,62.707 393.421,62.671 395.807 C 62.633 398.295,62.646 398.285,61.677 396.631 C 59.944 393.674,59.675 391.607,59.564 380.386 C 59.492 373.070,59.547 370.559,59.756 371.620 C 59.918 372.437,60.265 373.774,60.527 374.591 M121.162 381.575 C 121.006 391.628,120.801 393.248,119.331 396.068 C 118.185 398.264,117.904 398.552,118.106 397.321 C 118.332 395.943,117.883 392.326,116.751 386.401 L 115.828 381.569 117.085 380.206 C 118.646 378.512,120.218 375.168,120.719 372.475 C 121.270 369.516,121.330 370.757,121.162 381.575 M288.438 393.536 C 288.460 397.532,288.601 399.281,289.079 401.465 C 289.702 404.309,289.691 404.491,288.769 406.612 C 288.197 407.928,288.077 407.636,287.517 403.553 C 286.902 399.076,287.501 388.409,288.367 388.410 C 288.391 388.410,288.423 390.717,288.438 393.536 M343.388 391.483 C 344.138 396.143,343.882 405.402,342.957 407.087 C 342.319 408.250,341.408 404.311,341.862 402.347 C 342.626 399.036,343.032 394.370,342.828 391.254 C 342.590 387.611,342.777 387.688,343.388 391.483 " stroke="none" fill="#000000" fill-rule="evenodd"></path></g></svg>